<?xml version="1.0" encoding="utf-8"?>
<!-- Generator: Adobe Illustrator 27.5.0, SVG Export Plug-In . SVG Version: 6.00 Build 0)  -->
<svg version="1.1" id="Layer_1" xmlns="http://www.w3.org/2000/svg" xmlns:xlink="http://www.w3.org/1999/xlink" x="0px" y="0px"
	 viewBox="0 0 174.207 452.633" style="enable-background:new 0 0 174.207 452.633;" xml:space="preserve">
<g>
	<g>
		<path style="fill:#4B1E0A;" d="M163.379,55.862c-2.922-12.243-11.526-25.096-24.359-27.78c0.916-0.559,1.785-1.283,2.518-1.928
			c0.296-0.259,0.622-0.766,0.438-1.184c-0.773-1.767-3.247-1.951-4.899-1.968c-1.516-0.017-3.112,0.026-4.481,0.614
			c0.041-1.234-0.427-2.523-0.925-3.604c-0.635-1.378-2.018-2.189-3.394-2.692c-0.722-0.265-1.347,0.351-1.554,0.983
			c-0.304,0.933,0.045,1.907,0.09,2.871c0.022,0.488,0.094,0.983,0.15,1.479c-5.017-7.789-16.483-10.275-25.052-12.132
			c-11.904-2.58-24.449-1.526-36.23,1.082c-11.688,2.588-22.182,7.472-32.447,13.532c-7.453,4.4-15.349,13.094-14.731,22.308
			c0.011,0.161,0.077,0.264,0.167,0.322c-0.59,1.087-1.104,2.214-1.517,3.375c-2.192,6.149,1.593,17.931,8.953,18.441
			c-0.112,0.809-0.193,1.627-0.22,2.46c-0.054,1.738,0.636,3.757,1.055,5.399c0.658,2.584,0.739,5.124,0.783,7.767
			c0.091,5.452-1.461,11.028-2.365,16.384c-1.299,7.702-1.363,14.127,3.565,20.534c5.061,6.582,12.882,11.895,19.849,16.233
			c14.736,9.175,35.012,7.622,49.658-0.973c5.483-3.218,11.005-6.689,15.913-10.803c8.1-0.212,15.586-3.664,19.894-10.019
			c0.146,0.042,0.313,0.051,0.505-0.013c7.547-2.528,13.581-6.88,18.165-13.339c1.718-2.422,2.639-4.829,2.94-7.256
			c0.036,0.024,0.076,0.04,0.117,0.055c0.14-0.257,0.394-0.446,0.624-0.687c0.33-0.343,0.64-0.705,0.963-1.053
			c3.71-5.427,6.207-10.605,7.225-17.343C165.829,69.97,165.003,62.668,163.379,55.862z"/>
		<path style="fill:#DFB199;" d="M97.758,135.021c-8.147,4.965-16.752,6.519-26.202,6.554c-9.172,0.036-16.264-2.479-23.866-7.509
			c-5.614-3.715-11.028-8.078-15.741-12.886c-6.926-7.068-6.692-16.117-4.358-25.139c1.773-6.851,3.644-12.731,1.83-19.762
			c-1.317-5.102-1.562-9.04,0.421-14.03c1.051-2.644,2.545-5.087,4.004-7.536c1.115,2.801,4.539,5.487,6.922,6.741
			c3.903,2.054,9.451,2.075,13.613,1.156c0.102-0.023,0.193-0.083,0.277-0.157c8.061,4.524,20.807,2.632,28.379-1.787
			c6.464,7.09,17.352,11.909,26.716,8.405c2,2.357,4.408,4.116,7.043,5.265c0.892,3.142,4.64,6.195,7.265,7.341
			c0.136,0.06,0.275,0.107,0.411,0.162c2.017,5.704,2.127,12.57,0.128,18.205c-0.032,0.09-0.028,0.158-0.034,0.231
			c2.389-0.36,4.31-3.4,5.223-5.376c0.791-1.711,1.349-3.488,1.836-5.294c0.063-0.568,0.115-1.182,0.141-1.822
			c1.802-3.783,7.119-7.212,9.112-2.021c1.101,2.867,0.669,5.839-0.139,8.708c-1.066,3.787-6.749,16.229-12.187,9.856
			c-0.151-0.177-0.33-0.252-0.513-0.279c0.43-1.54,0.82-3.076,1.189-4.59c-0.662,1.041-1.339,2.072-2.017,3.102
			c-2.131,6.472-4.762,12.553-9.329,17.834C112.491,126.63,104.701,130.788,97.758,135.021z"/>
		<path style="opacity:0.6;fill:#DFB199;" d="M26.221,103.865c1.331,2.104,2.618,4.196,5.078,5.244
			c3.148,1.341,6.673,1.668,10.06,1.322c5.811-0.595,11.451-2.752,14.571-8.044c2.022-3.43,1.738-9.036,6.235-10.593
			c2.207-0.764,6.767-0.691,8.345,1.603c0.11,0.053,0.198,0.154,0.229,0.318c0.01,0.054,0.027,0.107,0.038,0.161
			c0.021,0.045,0.048,0.084,0.065,0.13c0.037,0.093,0.037,0.174,0.024,0.248c1.951,8.944,10.598,16.986,20.066,16.614
			c10.403-0.408,19.693-9.459,20.324-19.938c0.013-0.214,0.155-0.418,0.364-0.476c0.079-0.113,0.204-0.193,0.386-0.19
			c3.262,0.056,7.2,0.313,10.02,2.111c0.941,0.601,1.694,1.736,2.162,2.72c0.107,0.226,0.831,2.394,0.933,3.211
			c1.42-5.27,1.165-11.334-0.65-16.466c-0.136-0.055-0.275-0.103-0.411-0.162c-2.625-1.146-6.373-4.199-7.265-7.341
			c-2.635-1.148-5.043-2.907-7.043-5.265c-9.364,3.504-20.252-1.315-26.716-8.405c-7.572,4.419-20.318,6.311-28.379,1.787
			c-0.084,0.074-0.176,0.134-0.277,0.157c-4.162,0.919-9.71,0.897-13.613-1.156c-2.383-1.254-5.807-3.941-6.922-6.741
			c-1.348,2.263-2.709,4.527-3.74,6.942c3.82,7.407,13.142,10.422,20.691,6.676c0.033-0.017,0.065-0.017,0.098-0.026
			c0.178-0.325,0.658-0.466,0.837-0.044c1.655,3.913,7.476,5.212,11.297,5.837c4.757,0.778,10.196,0.553,13.935-2.846
			c0.049-0.197,0.199-0.364,0.462-0.364c0.024,0,0.042,0.011,0.063,0.013c0.138-0.025,0.285,0.004,0.415,0.133
			c0.364,0.364,1.633,2.124,2.277,1.758c0.019-0.009,0.036-0.02,0.054-0.029c0.622-0.371,1.246-0.742,1.907-1.04
			c1.322-0.595,2.684-1.131,4.114-1.406c2.715-0.522,5.539-0.569,8.231,0.139c3.943,1.037,7.347,3.155,10.091,6.002
			c0.188-0.045,0.397,0.007,0.528,0.219c1.878,3.039,6.028,3.077,9.225,2.644c0.192-0.372,0.819-0.448,0.91,0.06
			c0.363,2.047,1.325,4.039,3.135,5.186c1.144,0.725,2.353,1.312,3.402,2.177c0.498,0.41-0.214,1.113-0.707,0.707
			c-0.248-0.204-0.515-0.386-0.787-0.562c-0.057,0.024-0.119,0.04-0.192,0.041c-2.15,0.026-4.297,0.23-6.447,0.241
			c-1.11,0.005-3.012,0.267-4.038-0.376c-0.578-0.362-0.922-0.806-1.071-1.485c-0.283-1.291-0.69-2.511-1.172-3.718
			c-0.093-0.035-0.181-0.093-0.245-0.201c-5.697-9.529-17.392-13.593-27.065-7.321c-0.076,0.049-0.165,0.064-0.254,0.063
			c-2.691,1.595-5.04,4.16-5.893,7.181c-0.809,2.87-0.961,5.884-2.217,8.62c-0.139,0.303-0.436,0.31-0.652,0.168
			c-0.113,0.055-0.244,0.074-0.359,0.04c-0.073-0.021-0.146-0.041-0.219-0.063c-0.359-0.102-0.416-0.466-0.283-0.722
			c-0.355,0.082-0.686,0-0.986-0.281c-0.176-0.089-0.351-0.178-0.525-0.267c-0.514-0.238-1.043-0.433-1.588-0.587
			c-0.969-0.249-1.957-0.454-2.964-0.447c-2.38,0.014-4.552,0.596-6.251,2.343c-0.252,0.26-0.755,0.149-0.835-0.221
			c-1.34-6.158-4.234-13.095-9.849-16.541c-2.824-1.733-6.137-2.916-9.499-2.667c-2.285,0.169-4.239,0.611-6.222,1.786
			c-0.848,0.503-1.691,0.952-2.587,1.338c0.153,0.799,0.33,1.613,0.551,2.467c1.813,7.03-0.058,12.911-1.83,19.762
			C26.911,98.664,26.42,101.287,26.221,103.865z"/>
		<path style="opacity:0.6;fill:#DFB199;" d="M57.776,113.483c-1.994-1.232-2.588-3.156-2.257-5.134
			c-0.01-0.004-0.016-0.014-0.024-0.019c-2.422,2.125-3.852,6.556-1.166,9.098c1.341,1.268,3.149,1.878,4.961,1.873
			c4.445-0.855,9.063-4.507,8.719-8.979C65.533,112.993,61.234,115.619,57.776,113.483z"/>
		<path style="opacity:0.6;fill:#DFB199;" d="M127.207,102.571c0.001-0.003,0.003-0.007,0.004-0.011
			c0.678-1.029,1.354-2.061,2.017-3.102c-0.224,0.917-0.471,1.848-0.716,2.777c0.409,0.089,0.785,0.354,0.975,0.837
			c1.045,2.665,5.277-0.469,6.015-1.69c0.472-0.73,0.898-1.486,1.275-2.269c0.882-1.941,1.614-3.948,2.085-6.03
			c0.31-1.365,0.761-2.938,0.957-4.459c-0.031-0.244-0.06-0.488-0.11-0.733c-0.966-4.683-4.448-1.268-6.313,0.659
			c-0.54,0.558-1.22,0.459-1.682,0.078c-0.025,0.337-0.055,0.666-0.09,0.979c-0.487,1.806-1.045,3.583-1.836,5.294
			c-0.755,1.634-2.201,3.991-4.029,4.963c-0.245,3.768-2.207,7.691-3.658,11.052c-1.776,4.114-4.221,7.836-7.322,11.076
			c-6.6,6.895-15.681,10.9-24.526,14.143c-9.415,3.451-19.277,4.164-28.892,1.021c-4.95-1.617-9.507-4.024-14.251-6.133
			c-2.452-1.09-4.993-2.093-7.313-3.451c-0.899-0.526-1.786-1.063-2.692-1.55c3.354,2.918,6.926,5.621,10.587,8.043
			c7.603,5.029,14.694,7.545,23.866,7.509c9.45-0.035,18.055-1.589,26.202-6.554c6.943-4.233,14.733-8.392,20.124-14.627
			c4.354-5.036,6.943-10.803,9.022-16.938C126.851,103.089,126.979,102.788,127.207,102.571z"/>
		<path style="opacity:0.6;fill:#DFB199;" d="M73.924,124.693c-3.177,0.189-6.274,0.214-9.446-0.083
			c-4.367-0.41-9.658-0.378-13.87-2.086c3.319,4.942,8.124,8.338,14.223,9.337c3.583,0.587,6.929,0.494,10.044-1.58
			c2.279-1.518,4.99-3.301,6.067-5.939C78.626,124.838,76.309,124.551,73.924,124.693z"/>
		<path style="fill:#884013;" d="M125.948,82.314c1.263,0.316,2.57,0.432,3.868,0.361c0.677,4.232-0.554,8.517-2.034,12.524
			C128.535,90.893,127.88,85.988,125.948,82.314z"/>
		<path style="fill:#884013;" d="M155.943,94.881c0.146-2.909-0.566-5.854-1.866-8.89c0.208,0.861,0.567,1.709,0.682,2.561
			c0.192,1.404,0.159,2.898-0.018,4.305c-0.33,2.629-1.067,5.358-2.514,7.614c-1.144,1.784-2.611,4.224-4.476,5.885
			c-3.233,3.608-7.973,5.42-12.112,7.851c0.561-1.124,1.036-2.319,1.409-3.589c0.069-0.232-0.043-0.387-0.205-0.45
			c-1.731,2.43-3.27,4.763-5.564,6.825c-0.244,0.219-0.498,0.442-0.758,0.665c-0.929,0.879-1.952,1.68-3.161,2.342
			c-3.387,1.854-6.76,3.518-10.461,4.32c0.491-0.459,0.988-0.913,1.463-1.389c4.533-4.548,7.168-10.593,9.051-16.753
			c2.43,2.92,6.592,1.663,9.336-0.385c4.346-3.242,6.758-10.391,7.392-15.525c0.364-2.966-0.801-10.005-5.092-9.587
			c-3.163,0.308-5.846,2.235-7.305,4.883c-0.071-1.079-0.242-2.132-0.571-3.032c2.207-0.344,4.325-1.217,6.057-2.56
			c0.075-0.059,0.129-0.134,0.18-0.208c-0.866,0.336-1.775,0.573-2.708,0.696c-2.299,0.304-5.334,0.256-7.951-0.464
			c-0.553-0.11-1.107-0.245-1.664-0.414c-1.604-0.485-4.119-2.402-5.771-4.349c3.584,0.989,7.46,0.929,11.232-0.238
			c0.349-0.108,0.605-0.387,0.744-0.693c-6.181,1.305-13.67-1.699-18.194-5.363c-4.205-3.403-7.218-7.591-9.517-12.47
			c-1.035-2.197-2.487-4.993-3.01-7.698c0.264,6.445,3.898,13.439,7.829,18.61c-7.683,0.617-14.241-1.143-20.563-5.942
			c-2.981-2.264-5.422-5.15-7.482-8.255c-0.396-0.597-0.871-1.515-1.322-2.597c-1.123-1.964-1.928-4.107-1.877-6.331
			c0.041-1.773,0.254-3.776,1.016-5.461c-1.95,1.594-1.959,4.241-2.025,6.629c-0.16,5.576,2.529,10.108,5.985,14.225
			c-7.694,2.634-15.28,3.076-23.226,1.035c-2.329-0.6-4.279-1.846-5.92-3.454c-2.68-1.789-4.34-5.135-4.948-8.234
			c-0.46-2.339-0.571-5.341,0.388-7.741c-1.422,2.161-1.407,5.439-1.611,7.851c-0.419,4.957,2.219,9.29,6.047,12.176
			c-5.398,0.141-10.427-0.321-14.081-4.875c-0.47-0.585-0.849-1.174-1.175-1.763c-0.54-0.739-0.973-1.535-1.292-2.371
			c-0.694-1.383-1.003-2.956-0.716-4.684c0.621-3.749,3.584-6.317,6.891-7.964c-6.202,1.954-10.262,6.966-8.998,13.754
			c-3.07,4.328-5.818,8.986-6.998,14.112c-4.158-2.372-6.775-7.083-7.199-11.911c-0.48-3.176,0.133-6.525,1.905-9.401
			c2.024-3.284,5.057-5.454,8.558-6.993c2.054-0.904,4.709-1.857,7.168-2.018C29.729,36.3,23.557,40.249,19.78,45.93
			c2.543-10.211,9.595-16.119,18.649-21.155c9.24-5.142,18.817-8.739,29.141-11.025c10.439-2.311,21.068-2.571,31.644-1.142
			c9.155,1.238,22.009,4.272,27.786,11.901c0,0.011,0.003,0.019,0.003,0.03c0.235,0.154,0.46,0.316,0.686,0.481
			c0.171-0.053,0.334-0.171,0.433-0.373c0.05-0.101,0.078-0.202,0.117-0.303c0.136-1.424-0.095-2.908-0.076-4.319
			c0.005-0.305,0.412-0.834,0.751-0.553c0.896,0.742,1.451,1.708,1.807,2.766c0.089,0.239,0.161,0.486,0.224,0.739
			c0,0,0,0.001,0.001,0.002c0.12,0.489,0.21,0.99,0.348,1.458c-0.031,0.027-0.063,0.055-0.095,0.081
			c0.028,0.257,0.046,0.512,0.064,0.768l0.001-0.001c0.956-0.237,10-2.252,9.124,0.282c-0.621,1.791-2.67,2.74-4.725,3.373
			c0.036,0.022,0.063,0.047,0.108,0.062c12.963,3.906,20.817,13.617,24.838,26.286C164.916,68.857,163.527,82.912,155.943,94.881z"
			/>
		<path style="fill:#884013;" d="M120.416,73.076c0.109,0.041,0.221,0.075,0.331,0.115c-0.066-0.884-0.055-1.747,0.11-2.531
			c0.684-3.24,3.826-1.137,5.494,0.122c2.379,1.796,4.855,3.65,7.556,4.936c1.121,0.533,3.244,1.471,2.485-0.705
			c-0.532-1.527-1.42-2.881-2.217-4.279c-1.292-2.265-4.654-7.199-2.885-9.95c1.926-2.993,5.846-0.675,7.93,0.863
			c3.182,2.347,5.89,5.707,9.377,7.607c3.012,1.641,1.826-1.848,1.352-3.148c-0.211-0.578-0.417-1.158-0.605-1.744
			c-0.551-1.712-1.048-3.452-1.405-5.216c-0.305-1.508-1.659-6.951,1.091-7.23c1.72-0.175,3.066,1.844,3.904,3.07
			c1.531,2.241,3.01,4.604,5.048,6.434c0.921,0.827,2.974,2.192,4.55,2.332c-0.399-2.827-1.032-5.656-1.924-8.464
			c-2.402-7.57-6.188-14.071-11.6-18.922c-0.166,0.135-0.307,0.299-0.401,0.51c-0.493,1.1-0.041,2.357,0.545,3.318
			c0.88,1.443,3.483,4.503,1.867,6.295c-4.16,4.612-9.154-4.114-12.315-5.777c-0.968-0.509-7.845-2.416-5.902,0.692
			c1.099,1.758,2.732,2.974,4.305,4.279c2.395,1.989,7.262,5.419,6.942,9.085c-0.269,3.072-3.29,4.503-6.024,3.408
			c-3.746-1.5-6.577-4.543-9.628-7.07c-0.758-0.628-1.524-1.291-2.47-1.616c-1.161-0.399-5.027-1.647-4.934,0.972
			c0.09,2.486,2.546,4.565,4.063,6.326c1.521,1.765,4.34,6.362,0.397,7.127c-1.942,0.377-4.314-0.672-5.761-1.9
			c-1.687-1.432-5.109-6.206-7.719-5.21c-2.387,0.91-1.509,4.969-0.676,6.583c0.693,1.345,1.556,2.578,2.608,3.669
			c1.936,2.007,4.128,3.69,6.354,5.358C120.493,72.59,120.51,72.864,120.416,73.076z"/>
		<path style="opacity:0.5;fill:#884013;" d="M148.416,105.338c-3.017-3.066,0.015-8.115,0.646-11.609
			c0.827-4.573,1.155-15.549-5.932-15.06c-4.34,0.3-8.238,0.743-12.222-1.476c-0.415-0.23-0.257-0.762,0.119-0.913
			c1.854-0.75,3.535-1.531,4.934-2.849c-3.426-0.084-6.832-0.465-9.99-1.821c-5.28-2.267-10.841-5.623-15.084-9.52
			c-6.292-5.781-11.046-13.975-11.432-22.544c-1.069,0.757-2.153,1.551-3.062,2.491c-3.239,3.352-2.606,7.373-2.716,11.591
			c0.109,0.117,0.219,0.231,0.328,0.349c0.436,0.473-0.27,1.182-0.707,0.707c-0.076-0.083-0.156-0.164-0.233-0.247
			c-0.198-0.031-0.366-0.166-0.386-0.408c-2.816-2.964-5.947-5.781-7.357-9.731c-1.638-4.585-0.994-9.046-0.137-13.682
			c-5.62,0.301-11.782,3.265-15.301,7.665c-3.382,4.229-4.623,11.358-1.248,15.917c0.099,0.134,0.112,0.265,0.075,0.379
			c0.611,0.144,0.346,1.09-0.278,0.958c-4.485-0.943-9.162-2.664-12.011-6.475c-2.843-3.803-3.165-7.764-3.378-12.239
			c-5.051,1.442-7.97,5.888-9.324,10.767c-0.149,0.539-0.997,0.438-0.982-0.133c0.079-2.913,0.857-5.672,1.563-8.472
			c-6.486,1.449-12.871,5.199-16.487,10.895c-1.882,2.966-3.224,6.384-3.18,9.949c0.026,2.216,0.3,4.619,1.443,6.576
			c0.147,0.253,0.312,0.534,0.484,0.823c1.212-5.021,3.909-9.596,6.927-13.849c-1.264-6.788,2.796-11.8,8.998-13.754
			c-3.307,1.646-6.27,4.215-6.891,7.964c-0.287,1.727,0.021,3.301,0.716,4.684c0.319,0.836,0.752,1.632,1.292,2.371
			c0.326,0.589,0.705,1.178,1.175,1.763c3.654,4.554,8.683,5.016,14.081,4.875c-3.828-2.886-6.466-7.219-6.047-12.176
			c0.204-2.411,0.189-5.689,1.611-7.851c-0.959,2.4-0.848,5.402-0.388,7.741c0.608,3.1,2.268,6.445,4.948,8.234
			c1.641,1.608,3.591,2.854,5.92,3.454c7.945,2.041,15.531,1.599,23.226-1.035c-3.456-4.116-6.146-8.648-5.985-14.225
			c0.066-2.388,0.075-5.035,2.025-6.629c-0.762,1.685-0.975,3.688-1.016,5.461c-0.051,2.224,0.754,4.367,1.877,6.331
			c0.451,1.082,0.926,2,1.322,2.597c2.061,3.104,4.501,5.991,7.482,8.255c6.321,4.8,12.88,6.559,20.563,5.942
			c-3.931-5.171-7.565-12.165-7.829-18.61c0.522,2.705,1.975,5.501,3.01,7.698c2.299,4.879,5.312,9.066,9.517,12.47
			c4.524,3.664,12.014,6.668,18.194,5.363c-0.139,0.307-0.396,0.585-0.744,0.693c-3.772,1.167-7.648,1.228-11.232,0.238
			c1.652,1.946,4.167,3.863,5.771,4.349c0.557,0.169,1.111,0.304,1.664,0.414c2.617,0.72,5.652,0.768,7.951,0.464
			c0.933-0.123,1.842-0.36,2.708-0.696c-0.051,0.074-0.105,0.149-0.18,0.208c-1.731,1.343-3.85,2.216-6.057,2.56
			c0.329,0.9,0.5,1.953,0.571,3.032c1.459-2.648,4.142-4.575,7.305-4.883c4.291-0.418,5.456,6.621,5.092,9.587
			c-0.634,5.135-3.046,12.283-7.392,15.525c-2.744,2.048-6.906,3.305-9.336,0.385c-1.883,6.16-4.518,12.205-9.051,16.753
			c-0.475,0.476-0.972,0.93-1.463,1.389c3.701-0.803,7.074-2.466,10.461-4.32c1.209-0.662,2.232-1.463,3.161-2.342
			c0.26-0.223,0.514-0.446,0.758-0.665c2.295-2.063,3.833-4.396,5.564-6.825c0.162,0.063,0.274,0.218,0.205,0.45
			c-0.373,1.27-0.848,2.465-1.409,3.589c4.14-2.431,8.879-4.242,12.112-7.851c0.296-0.264,0.578-0.552,0.854-0.849
			C148.543,105.45,148.477,105.399,148.416,105.338z"/>
	</g>
	<path style="fill:#4B1E0A;" d="M112.623,332.138c3.528-1.266,9.015-2.779,11.674-5.551c1.059-1.104,0.83-2.99,0.442-4.758
		c0.141-0.168,0.233-0.376,0.228-0.613c-0.463-17.27-5.282-34.474-7.383-51.579c-0.951-7.753-3.277-15.251-4.112-23.064
		c-0.25-2.329-1.885-20.602-5.068-20.441c0.003-0.024,0.004-0.049,0.008-0.072c0.313-0.221,0.551-0.786,0.108-0.934
		c0.224-1.637,0.887-3.661,0.692-5.198c-0.318-2.507-1.729-4.259-3.226-6.238c-0.085-0.113-0.191-0.17-0.304-0.205
		c0.507-12.226,0.835-24.465,1.048-36.696c0.221-12.797-1.086-24.159-9.472-34.136c0.238-0.705,0.34-1.512,0.275-2.489
		c-0.097-1.464-1.454-2.694-2.929-2.543c-4.934,0.503-9.883,2.816-14.742,3.911c-1.777,0.402-3.769,0.147-5.322,0.848
		c-1.98-0.267-4.041,0.288-6.043,0.213c-1.588-0.059-3.179-0.723-4.769-0.518c-0.204-0.216-0.435-0.398-0.71-0.473
		c-0.113-0.03-0.223-0.024-0.326,0c-0.85-0.486-2.497,1.296-2.953,1.743c-0.855,0.84-1.625,1.747-2.363,2.685
		c-3.715,1.127-5.953,3.603-8.691,6.633c-4.914,5.441-9.289,11.594-13.549,17.549c-4.008,5.6-7.545,11.484-10.421,17.741
		c-2.056,4.473-3.471,8.797-0.894,13.324c0.164,0.286,0.41,0.351,0.656,0.299c1.559,1.749,3.94,1.603,6.691,1.27
		c1.75-0.213,3.489-0.476,5.221-0.772c-3.703,15.077-5.385,31.262-4.662,46.869c-0.879,6.368-2.328,12.695-3.159,19.066
		c-0.862,6.609-1.56,13.242-2.194,19.878c-0.69,7.196-1.285,14.385-1.443,21.614c-0.084,3.897-0.018,7.795,0.106,11.691
		c0.102,3.227,1.134,6.415,0.078,9.575c-0.168,0.501,0.117,1.042,0.578,1.246c5.633,2.502,11.494,3.546,17.418,3.729
		c-0.868,9.251,0.175,18.503,0.983,27.722c0.86,9.813,1.405,19.647,2.446,29.444c0.688,6.456,0.377,13.655,1.926,19.97
		c-1.629,0.112-3.166,1.15-4.432,2.393c-0.104,0.001-0.207,0.022-0.285,0.081c-8.055,6.104-17.869,6.576-27.225,9.667
		c-3.122,1.032-9.686,4.672-6.883,8.846c0.818,1.217,3.212,1.402,5.123,1.429c5.153,1.469,11.607,0.294,16.494-0.072
		c0.162-0.013,0.32-0.034,0.482-0.047c6.268-0.462,12.376-0.842,18.022-3.098c0.58-0.12,1.158-0.247,1.74-0.366
		c1.135-0.234,2.084-1.035,3.197-1.341c0.924,0.354,1.838,0.08,2.807-0.268c0.657-0.235,1.268-0.62,1.855-0.989
		c0.799-0.5,1.728-0.773,2.556-1.228c1.831-1.005,2.241-2.662,2.172-4.431c0.053-0.267,0.101-0.539,0.112-0.852
		c0.065-1.666-0.112-4.841-1.076-6.79c0.717-0.135,1.364-0.397,1.82-0.962c1.333-1.645,0.512-5.89,0.28-7.75
		c-1.235-9.919,2.234-20.86,3.523-30.667c1.036-7.888,0.06-14.79-1.544-22.48c-0.398-1.915-1.977-6.093-1.59-7.754
		c0.25-1.079-0.594-2.23-1.324-3.354c-0.302-1.337,1.422-1.658,2.054-2.946c0.972-1.98-0.275-4.949-0.505-6.781
		c-0.465-3.715-0.021-7.516,0.121-11.237c0.275-7.261,0.749-14.501,1.068-21.759c0.161-3.643,0.451-7.273,0.713-10.909
		c0.234-3.25,1.912-8.078,0.973-11.133c0.664,0.772,1.075,1.847,1.344,3.793c0.162,1.172,0.359,2.331,0.563,3.497
		c0.599,3.438,1.551,6.801,2.316,10.204c1.667,7.413,2.676,14.953,3.994,22.429c0.658,3.725,1.459,7.424,2.24,11.123
		c0.434,2.055,0.322,5.27,1.658,6.995c0.662,0.854,0.957,1.191,1.715,1.953c1.861,1.872,0.637,3.699,0.379,5.706
		c-0.191,1.489,0.225,2.854,0.803,4.173c0.657,6.022,2.385,11.647,4.505,17.536c3.142,8.727,5.703,17.658,8.38,26.534
		c1.321,4.377,2.526,8.787,3.683,13.208c0.732,2.8,0.928,5.857,1.921,8.566c-0.509,0.292-0.928,0.761-1.216,1.261
		c-0.286,0.499-0.199,1.048-0.139,1.589c0.055,0.495-0.381,0.965-0.472,1.481c-2.356,3.164-4.912,5.777-8.216,8.198
		c-2.223,1.628-4.55,4.014-5.384,6.712c-2.344,7.584,3.988,10.178,10.547,10.521c4.803,0.252,16.175-0.746,18.097-6.431
		c1.317-3.903,1.39-7.986,1.666-12.065c0.255-3.771,1.25-7.023,0.144-10.48c-0.111-0.176-0.23-0.346-0.368-0.506
		c-0.418-0.484-1.278-0.798-1.321-1.525c-0.036-0.602,0.004-1.422,0.21-2.147c-0.015-0.066-0.028-0.134-0.043-0.201
		c0.531-6.34-0.749-12.799-1.504-19.068c-0.936-7.771-0.79-15.678-1.936-23.409c-0.935-6.31-1.92-13.835-4.79-19.593
		c-2.735-5.489-0.767-2.967-0.891-5.989c-0.013-0.316,0.069-1.21-0.194-1.604c-0.732-1.088-0.577-0.973-1.695-1.646
		c-1.525-0.921-0.65-3.365-0.752-4.788C106.906,333.758,109.81,333.146,112.623,332.138z"/>
	<g>
		<path style="fill:#DCEAF8;" d="M79.889,143.668c2.452-0.244,5.036-1.361,7.442-1.937c1.537-0.368,3.047-0.96,4.546-1.453
			c3.454-1.133,2.658,3.424,0.398,4.51c-3.823,1.837-10.616,8.867-13.575,3.454c-0.555-1.015-1.225-2.438-2.129-3.488
			C77.493,144.187,78.578,143.798,79.889,143.668z"/>
		<path style="fill:#DFB199;" d="M72.677,144.229c-0.011,0.022-0.023,0.04-0.035,0.063c-1.611,3.395-2.411,7.529-3.065,11.418
			c-1.319-2.266-2.05-4.793-3.031-7.212c-0.142-0.607-0.286-1.213-0.4-1.805c-0.198-1.015-0.818-1.864-1.351-2.755
			c-0.061-0.201-0.144-0.396-0.236-0.592c1.19,0.216,2.39,0.765,3.553,0.909C69.565,144.437,71.151,144.406,72.677,144.229z"/>
		<path style="opacity:0.6;fill:#DFB199;" d="M72.677,144.229c-0.011,0.022-0.023,0.04-0.035,0.063
			c-1.611,3.395-2.411,7.529-3.065,11.418c-1.319-2.266-2.05-4.793-3.031-7.212c-0.142-0.607-0.286-1.213-0.4-1.805
			c-0.198-1.015-0.818-1.864-1.351-2.755c-0.061-0.201-0.144-0.396-0.236-0.592c1.19,0.216,2.39,0.765,3.553,0.909
			C69.565,144.437,71.151,144.406,72.677,144.229z"/>
		<path style="fill:#DFB199;" d="M83.799,187.753c-0.898-0.752-1.806-1.488-2.774-2.147c0,0.054,0.008,0.108,0.035,0.161
			c0.827,1.611,2.887,3.726,2.029,5.618c-0.346,0.761-1.014,1.309-1.711,1.824c0.266-0.693,0.447-1.38,0.49-2.018
			c0.054-0.764-0.221-1.473-0.659-2.116c-1.077-0.99-2.401-1.9-3.765-2.362c0.008,0.037,0.019,0.074,0.039,0.108
			c0.807,1.36,2.09,2.368,2.733,3.829c0.677,1.535-1.089,3.928-2.23,5.63c0.017-0.336,0.025-0.659,0.026-0.94
			c0.002-0.905,0.234-2.327,0.195-3.62c-0.513-1.021-1.477-1.746-2.425-2.464c-0.025,0.15,0.007,0.306,0.121,0.416
			c1.565,1.514,1.13,4.533,1.126,6.539c0,0.201-0.759,3.021-0.963,2.509c-0.337-0.849-0.517-1.677-0.668-2.574
			c-0.177-1.046-0.392-2.108-0.614-3.145c-0.168-0.781-0.06-1.497-0.175-2.242c-0.205-1.32-1.998-1.296-3.037-1.634
			c-0.07-0.023-0.148,0.008-0.219,0.057c-1.753-1.152-3.502-2.311-5.275-3.431c1.49-0.755,2.903-1.509,4.413-2.069
			c0.337,0.201,0.874,0.009,1.16-0.379c0.582-0.168,1.183-0.307,1.813-0.398c1.63-0.235,3.104,0.028,4.526,0.483
			c2.037,0.179,4.023,0.744,5.929,1.513c0.007,0.009,0.009,0.018,0.017,0.025c1.293,1.326,1.913,2.603,2.353,4.392
			c0.246,0.999-1.099,2.454-2.328,3.03c0.243-0.342,0.446-0.697,0.573-1.077C84.997,189.882,84.543,188.763,83.799,187.753z"/>
		<path style="opacity:0.6;fill:#DFB199;" d="M76.288,194.646c-0.121-0.958-0.281-2.452-0.711-3.616
			c-0.084-0.124-0.168-0.247-0.253-0.363c-0.673-0.929-1.448-1.314-2.322-1.711c-0.323,0.031-0.632-0.025-0.886-0.183
			c-0.264-0.045-0.534-0.119-0.811-0.247c-0.686-0.319-1.291-0.754-1.766-1.282c-0.236-0.189-0.441-0.42-0.598-0.705
			c-0.387-0.7-0.538-1.355-0.514-1.965c-0.778,0.374-1.553,0.774-2.35,1.177c1.773,1.12,3.522,2.278,5.275,3.431
			c0.07-0.049,0.148-0.08,0.219-0.057c1.039,0.338,2.832,0.314,3.037,1.634c0.115,0.745,0.007,1.461,0.175,2.242
			c0.223,1.037,0.438,2.1,0.614,3.145c0.131,0.775,0.289,1.499,0.545,2.228C76.359,197.192,76.45,195.923,76.288,194.646z"/>
		<path style="opacity:0.6;fill:#DFB199;" d="M78.013,195.341c-0.001,0.267-0.01,0.574-0.025,0.892
			c1.413-2.402,1.18-6.76-2.177-6.954c0.938,0.711,1.889,1.432,2.396,2.442C78.247,193.014,78.015,194.436,78.013,195.341z"/>
		<path style="opacity:0.6;fill:#DFB199;" d="M77.571,186.689c0.026,0.032,0.041,0.067,0.057,0.102
			c1.298,0.479,2.553,1.34,3.581,2.285c0.438,0.643,0.713,1.352,0.659,2.116c-0.043,0.638-0.225,1.324-0.49,2.018
			c0.002-0.002,0.004-0.004,0.006-0.005c0.009-0.008,0.011-0.017,0.02-0.024c0.864-0.703,1.155-1.737,1.056-2.814
			C81.89,188.375,79.394,186.054,77.571,186.689z"/>
		<path style="opacity:0.6;fill:#DFB199;" d="M84.198,187.034c-1.043-0.956-2.257-1.267-3.551-1.557
			c0.148,0.102,0.293,0.211,0.434,0.328c-0.008-0.012-0.016-0.025-0.021-0.038c-0.027-0.053-0.035-0.108-0.035-0.161
			c0.969,0.658,1.876,1.395,2.774,2.147c0.744,1.01,1.198,2.129,0.735,3.518c-0.127,0.38-0.33,0.735-0.573,1.077
			c0.649-0.305,1.325-0.855,1.787-1.454C85.935,189.46,85.515,188.242,84.198,187.034z"/>
		<path style="fill:#F3C8D8;" d="M69.51,181.098c0.079-0.956,0.159-1.91,0.128-2.874c-0.004-0.098-0.006-0.198-0.008-0.295
			c0.025-0.063,0.037-0.131,0.042-0.204c0.224,1.609,0.423,3.218,0.502,4.828c-0.267,0.109-0.53,0.238-0.792,0.362
			c0.001-0.018,0.01-0.032,0.012-0.051c0.023-0.406,0.101-0.801,0.234-1.184C69.704,181.399,69.638,181.213,69.51,181.098z"/>
		<path style="fill:#DCEAF8;" d="M59.275,146.482c0.668-0.851,1.354-1.674,2.133-2.425c0.251-0.242,0.563-0.748,0.89-1.066
			c0.224,0.38,0.469,0.745,0.662,1.145c0.224,0.466,0.453,0.911,0.699,1.364c0.016,0.028,0.037,0.04,0.055,0.064
			c0.1,0.273,0.205,0.546,0.308,0.826c-1.646,0.736-3.249,1.578-4.892,2.327c-0.675,0.309-1.361,0.589-1.981,0.999
			c-0.037,0.024-0.083,0.051-0.13,0.075C57.673,148.625,58.462,147.517,59.275,146.482z"/>
		<path style="fill:#DCEAF8;" d="M25.204,199.861c-2.57-10.582,8.004-23.295,13.824-31.284c3.26-4.474,6.611-8.893,10.021-13.253
			c2.107-2.692,4.304-4.768,6.731-6.793c-0.337,0.684-0.674,1.362-1.13,1.896c-1.449,1.689,0.994,2.332,2.236,1.706
			c2.48-1.247,5.23-2.36,7.576-3.895c0.141,1.383,0.049,2.821,1.066,3.887c0.594,3.171,1.328,6.313,1.674,9.549
			c0.525,4.915,0.625,9.857,1.181,14.773c-0.031,0.309-0.059,0.618-0.079,0.934c-0.129,1.935-0.415,3.867-0.502,5.802
			c-0.008,0.226,0.063,0.37,0.164,0.475c-0.844,0.493-1.672,1.061-2.482,1.715c-0.002,0.001-0.003,0.005-0.006,0.006
			c-0.619-0.387-1.241-0.77-1.869-1.143c-2.609-1.546-5.271-2.999-7.896-4.52c-0.97-0.563-2.158-0.905-3.021-1.627
			c-0.191,0.044-0.381,0.112-0.57,0.174c-0.018-0.445-0.164-0.91-0.273-1.328c-0.26-0.99-0.719-1.885-1.365-2.674
			c-0.967-1.183-2.475-1.3-3.842-0.942c1.919-2.293,3.332-5.315,4.51-8.215c0.543-0.964,1.086-1.927,1.617-2.887
			c1.385-2.502,2.737-5.86,4.758-7.904c0.15-0.152,0.035-0.381-0.166-0.364c-1.549,0.128-2.68,2.286-3.523,3.855
			c0.193-0.786,0.318-1.569,0.289-2.267c0.019-0.088,0.046-0.173,0.063-0.26c0.021-0.112-0.035-0.16-0.104-0.168
			c-0.071-0.498-0.24-0.933-0.531-1.275c0.612,2.09-0.189,4.35-1.103,6.409c-1.538,2.684-2.915,5.463-4.151,8.299
			c-0.67,1.172-1.354,2.336-2.047,3.494c-0.313,0.732-0.625,1.48-0.922,2.245c-2.537,4.411-5.383,8.581-8.433,12.245
			c-1.048,0.307-2.067,0.676-3.024,1.049c-1.568,0.61-3.877,1.68-4.936,3.23c1.85-1.476,5.117-2.008,6.971-2.277
			c0.034-0.005,0.055,0.004,0.084,0.006c1.061-0.229,2.135-0.42,3.18-0.62c-2.301,1.614-4.194,3.783-6.609,5.097
			c-0.207,0.112-0.323,0.409-0.293,0.633c3.149-2.608,6.482-5.205,10.752-5.288c0.129-0.003,0.213,0.044,0.266,0.113
			c0.19-0.044,0.378-0.087,0.568-0.125c-0.139,1.033,0.014,1.91,0.789,2.172c0.086,0.029,0.178,0.017,0.261-0.021
			c2.169,2.331,5.637,3.977,8.681,5.47c-0.317,0.067-0.638,0.125-0.955,0.195c-5.022,1.104-9.943,2.435-15.018,3.304
			C33.744,200.123,28.792,201.95,25.204,199.861z"/>
		<path style="fill:#DFB199;" d="M50.923,178.763c-1.68,0.879-3.232,2.354-4.418,3.834c-0.432,0.813-0.836,1.641-1.284,2.449
			c-0.013,0.025-0.034,0.045-0.052,0.07c-0.142,0.258-0.293,0.512-0.477,0.738c-1.217,1.502-4.277,0.491-5.863,0.513
			c-0.189,0.002-0.27-0.107-0.303-0.24c-0.195,0.04-0.392,0.075-0.586,0.122c2.234-2.673,4.165-5.481,5.914-8.424
			c0.13-0.277,0.245-0.56,0.398-0.825c0.465-0.941,1.037-1.792,1.715-2.065c0.032-0.025,0.068-0.045,0.1-0.07
			c0.008-0.025,0.016-0.051,0.023-0.076c0.022,0.004,0.047,0.007,0.069,0.012c0.121-0.09,0.238-0.184,0.368-0.26
			c0.301-0.177,0.474-0.025,0.515,0.199c0.381-0.039,0.76-0.071,1.178-0.021c0.914,0.109,1.482,1.087,1.863,1.819
			C50.157,176.681,50.498,177.962,50.923,178.763z"/>
		<path style="opacity:0.6;fill:#DFB199;" d="M43.544,184.883c-0.471,0.504-1.27,0.096-1.295-0.536
			c-0.135-3.482,2.438-7.344,5.479-9.648c-0.232,0.003-0.461,0.017-0.686,0.04c-0.041-0.225-0.214-0.376-0.515-0.199
			c-0.13,0.076-0.247,0.17-0.368,0.26c-0.022-0.005-0.047-0.008-0.069-0.012c-0.007,0.025-0.015,0.051-0.023,0.076
			c-0.031,0.025-0.067,0.045-0.1,0.07c-0.678,0.273-1.25,1.124-1.715,2.065c-0.153,0.266-0.269,0.548-0.398,0.825
			c-1.749,2.942-3.68,5.751-5.914,8.424c0.194-0.047,0.391-0.082,0.586-0.122c0.033,0.134,0.114,0.242,0.303,0.24
			c1.586-0.021,4.646,0.989,5.863-0.513c0.184-0.227,0.335-0.48,0.477-0.738c0.018-0.025,0.039-0.045,0.052-0.07
			c0.448-0.809,0.853-1.637,1.284-2.449c1.186-1.48,2.738-2.955,4.418-3.834c-0.235-0.444-0.443-1.03-0.596-1.494
			C47.581,179.346,45.869,182.389,43.544,184.883z"/>
		<path style="fill:#DCEAF8;" d="M34.563,331.902c-2.28-0.183-4.578-1.37-6.791-1.93c0.077,0.02,0.184-3.223,0.182-3.355
			c-0.091-5.184-0.824-10.364-0.847-15.586c-0.048-11.141,1.079-22.279,2.186-33.352c0.724-7.237,2.19-14.637,2.99-22
			c0.344,0.488,1.297,0.084,1.27-0.621c-0.348-8.893,0.031-17.742,0.889-26.598c0.863-8.914,2.732-17.747,3.479-26.667
			c4.944-0.908,9.835-2.074,14.739-3.214c1.405-0.327,2.832-0.602,4.268-0.86c3.323,1.885,6.442,3.98,9.715,5.841
			c-0.234,4.389-1.42,8.751-1.861,13.135c-0.602,5.965-1.197,11.932-1.77,17.899c-1.072,11.166-1.607,22.374-2.041,33.58
			c-0.439,11.332-0.986,22.681-0.906,34.022c0.041,6.039,0.268,12.078,0.477,18.111c0.123,3.569,1.381,7.614,1.043,11.105
			c-0.014,0.149,0.01,0.262,0.036,0.37c-3.593,0.519-7.157,1.217-10.78,1.465C45.412,333.618,39.954,332.336,34.563,331.902z"/>
		<path style="fill:#F3C8D8;" d="M67.853,204.231c1.367,0.74,2.767,1.434,4.228,2.041c0.791,3.902,0.769,8.188,1.15,12.111
			c0.546,5.598,1.251,11.178,1.822,16.773c0.325,3.182,0.626,6.368,0.916,9.557c-0.117,0.041-0.231,0.094-0.343,0.163
			c-1.809,0.018-3.609,0.196-5.412,0.319c-1.985,0.137-3.926-0.309-5.906-0.107c0.2-2.987,0.42-5.973,0.677-8.956
			c0.511-5.955,1.104-11.904,1.638-17.857C67.032,213.7,68.086,208.875,67.853,204.231z"/>
		<path style="fill:#F3B9AD;" d="M75.053,235.157c-0.571-5.596-1.276-11.176-1.822-16.773c-0.382-3.923-0.359-8.209-1.15-12.111
			c-1.461-0.608-2.86-1.301-4.228-2.041c0.233,4.644-0.82,9.469-1.23,14.045c-0.533,5.953-1.127,11.902-1.638,17.857
			c-0.257,2.983-0.477,5.969-0.677,8.956c0.805-0.082,1.602-0.056,2.398-0.007c-0.137-0.162-0.209-0.378-0.139-0.646
			c1.383-5.208,0.709-10.643,1.438-15.943c0.469-3.408,0.966-6.88,0.939-10.33c-0.018-2.209-0.031-4.326,0.498-6.478
			c0.172-0.694,1.315-0.751,1.459-0.01c0.369-0.11,0.789,0.023,0.879,0.51c1.058,5.726,1.089,11.719,1.596,17.518
			c0.443,5.063,0.769,10.135,1.129,15.205c0.374-0.016,0.747-0.029,1.121-0.033c0.111-0.069,0.226-0.122,0.343-0.163
			C75.679,241.525,75.378,238.339,75.053,235.157z"/>
		<path style="fill:#2D3649;" d="M52.149,428.614c-1.344,0.485-2.688,1.034-4.107,1.303c-0.486,0.091-0.971,0.197-1.455,0.298
			c-5.834,2.281-12.291,2.973-18.633,3.359c1.359-0.201,2.424-0.389,2.969-0.483c6.49-1.14,12.755-2.962,19.009-4.979
			c1.088-0.351,2.194-0.309,3.306-0.166C52.87,428.177,52.507,428.403,52.149,428.614z"/>
		<path style="fill:#76797B;" d="M61.938,423.792c-0.039,0.098-0.09,0.192-0.141,0.285c-0.018,0.551-0.142,1.069-0.433,1.523
			c-3.838,2.214-7.375,0.363-11.448,1.272c-3.872,0.863-7.633,2.509-11.49,3.521c-4.351,1.141-8.748,1.961-13.213,2.483
			c-2.375,0.277-4.749,0.278-7.129,0.172c-1.512-0.108-3.002-0.358-4.471-0.75c-1.301-0.037-2.037-0.743-2.225-2.1
			c0.296-0.53,0.774-1.009,1.339-1.369c0.556-0.628,1.323-1.089,2.327-1.367c2.174-1.05,4.601-1.585,6.926-2.186
			c3.502-0.903,7.029-1.674,10.525-2.603c2.016-0.537,8.391-2.141,10.428-4.804c1.741-1.19,3.135-2.963,5.486-2.922
			c0.664,0.013,1.418,0.404,2.095,0.825c1.795,0.706,3.314,2.477,3.602,4.347c0.294-0.135,0.54-0.395,0.587-0.737
			c0.119-0.878,0.074-1.608-0.082-2.251c1.286,0.074,2.493,0.028,3.781-0.245c0.55-0.118,1.095-0.379,1.602-0.62
			c0.028-0.011,0.06-0.02,0.086-0.032c0.011-0.004,0.017-0.016,0.026-0.021c0.002-0.001,0.004-0.001,0.005-0.002
			c0.733-0.344,1.262,2.815,1.343,3.133c0.171,0.669,0.375,1.337,0.516,1.98C61.915,422.061,61.991,422.958,61.938,423.792z"/>
		<path style="opacity:0.5;fill:#76797B;" d="M61.981,421.323c-0.141-0.643-0.345-1.311-0.516-1.98
			c-0.081-0.317-0.609-3.477-1.343-3.133c-0.001,0.001-0.003,0.001-0.005,0.002c-0.01,0.005-0.016,0.017-0.026,0.021
			c-0.026,0.012-0.058,0.022-0.086,0.032c-0.508,0.241-1.053,0.502-1.602,0.62c-1.288,0.273-2.495,0.319-3.781,0.245
			c0.156,0.643,0.201,1.373,0.082,2.251c-0.047,0.343-0.293,0.603-0.587,0.737c-0.071-0.458-0.217-0.91-0.421-1.342
			c-1.612,3.631-5.857,5.827-9.4,7.113c-6.219,2.257-13.061,3.777-19.551,5.053c-4.357,0.855-9.338,1.409-13.34-0.767
			c-0.005,0.008-0.011,0.015-0.016,0.022c0.188,1.357,0.924,2.063,2.225,2.1c1.469,0.392,2.959,0.642,4.471,0.75
			c2.38,0.107,4.754,0.105,7.129-0.172c4.465-0.522,8.862-1.342,13.213-2.483c3.857-1.012,7.618-2.657,11.49-3.521
			c4.073-0.909,7.61,0.941,11.448-1.272c0.291-0.454,0.415-0.973,0.433-1.523c0.051-0.093,0.102-0.188,0.141-0.285
			C61.991,422.958,61.915,422.061,61.981,421.323z"/>
		<path style="fill:#142E4B;" d="M64.503,339.267c-1.988,1.216-2.618,2.063-2.654,2.935c0.176,0.034,0.353,0.071,0.528,0.105
			c-0.094,0.794,0.087,1.562,0.62,2.478c0.836,1.439-0.645,2.546,0.088,3.789c1.961,3.324,2.274,7.471,3.099,11.183
			c0.997,4.485,0.89,8.549,0.784,13.076c-0.201,8.628-2.57,17.336-3.439,25.94c-0.39,3.87-0.435,7.529-0.117,11.387
			c0.156,1.916,0.842,3.511-1.407,3.249c-0.993-0.114-2.142,0.457-3.021,0.813c-0.066-0.018-0.146-0.02-0.206-0.044
			c-0.003,0.015-0.005,0.029-0.007,0.045c-0.011,0.051-0.002,0.091-0.006,0.139c-0.104,0.08-0.193,0.174-0.264,0.287
			c-3.388,0.545-7.893-0.365-8.316-4.437c-0.284-2.739-0.331-5.499-0.642-8.253c-0.796-7.047-1.394-14.128-1.987-21.195
			c-1.26-15.021-2.482-29.953-3.264-44.994c6.612,0.076,13.291-0.875,19.808-2.078c0.147-0.027,0.282-0.088,0.407-0.164
			C64.767,336.085,64.982,338.974,64.503,339.267z"/>
		<path style="fill:#2D3649;" d="M96.077,441.101c-2.702-0.145-5.316-0.982-6.726-2.623c3.97,3.538,13.768,3.363,20.334,0.501
			C105.838,441.086,100.533,441.339,96.077,441.101z"/>
		<path style="fill:#76797B;" d="M115.479,415.711c0.706,0.969,0.688,2.292,0.502,3.587c0.056,3.781-0.875,8.089-1.091,11.311
			c-0.067,1.027-0.264,1.938-0.529,2.783c-2.95,3.403-6.74,4.808-11.335,5.434c-3.927,0.535-13.346,1.114-14.639-4.215
			c0.192-1.118,0.701-2.384,1.652-3.822c1.324-2.006,3.549-3.371,5.42-4.808c2.476-1.897,4.111-4.498,5.601-7.177
			c0.027-0.006,0.053-0.018,0.08-0.021c-0.092,0.279-0.17,0.564-0.215,0.857c-0.035,0.229,0.057,0.382,0.191,0.458
			c0.412-1.627,2.252-2.942,3.602-3.733c0.967-0.566,1.954-0.905,3.084-0.893c0.526,0.007,1.055,0.195,1.577,0.394
			c0.455-0.01,0.91-0.023,1.363-0.072c0.354,0.541,0.741,1.059,1.068,1.621c0.433,0.739,0.394,1.579,0.631,2.36
			c0.234-0.983,0.418-1.992,0.144-2.979c-0.074-0.27,0.15-0.566,0.392-0.682c0.01-0.028,0.014-0.057,0.026-0.086
			c0.03-0.072,0.066-0.128,0.102-0.189c0.042-0.082,0.098-0.156,0.163-0.227c0.031-0.035,0.063-0.074,0.096-0.103
			c0.008-0.007,0.013-0.016,0.021-0.022C114.003,415.018,114.985,415.034,115.479,415.711z"/>
		<path style="opacity:0.5;fill:#76797B;" d="M115.479,415.711c-0.494-0.677-1.477-0.693-2.094-0.224
			c-0.009,0.007-0.014,0.016-0.021,0.022c-0.033,0.028-0.064,0.067-0.096,0.103c-0.065,0.07-0.121,0.145-0.163,0.227
			c-0.035,0.061-0.071,0.117-0.102,0.189c-0.013,0.029-0.017,0.058-0.026,0.086c-0.241,0.115-0.466,0.412-0.392,0.682
			c0.274,0.987,0.091,1.996-0.144,2.979c-0.237-0.781-0.198-1.621-0.631-2.36c-0.327-0.563-0.715-1.08-1.068-1.621
			c-0.453,0.049-0.908,0.063-1.363,0.072c-0.522-0.199-1.051-0.388-1.577-0.394c-1.13-0.013-2.117,0.326-3.084,0.893
			c-1.35,0.791-3.189,2.106-3.602,3.733c-0.135-0.076-0.227-0.229-0.191-0.458c0.045-0.294,0.123-0.578,0.215-0.857
			c-0.027,0.004-0.053,0.016-0.08,0.021c-0.714,1.284-1.465,2.548-2.322,3.727c1.11-0.466,2.234-0.96,3.156-1.637
			c0.951-0.699,1.951-1.718,3.106-2.068c1.609-0.489,3.488-0.188,4.543,1.284c0.885,1.234,1.401,0.99,2.725,1.279
			c0.495,0.108,1.037,0.649,1.289,1.055c0.271,0.435,0.474,0.891,0.621,1.356c0.054,0.108,0.098,0.228,0.121,0.37
			c0.007,0.042,0.008,0.083,0.015,0.124c0.095,0.441,0.13,0.89,0.108,1.34c0.17,9.221-12.564,14.245-21.604,12.865
			c3.391,0.987,7.814,0.653,10.207,0.327c4.595-0.626,8.385-2.03,11.335-5.434c0.266-0.846,0.462-1.756,0.529-2.783
			c0.216-3.222,1.146-7.529,1.091-11.311C116.168,418.003,116.186,416.68,115.479,415.711z"/>
		<path style="fill:#2D3649;" d="M102.664,415.204c0.166-0.236,0.351-0.442,0.526-0.658c0.328,0.164,0.669,0.313,1.017,0.449
			c-0.572,0.388-1.088,0.831-1.543,1.311C102.609,415.93,102.462,415.492,102.664,415.204z"/>
		<path style="fill:#142E4B;" d="M104.002,344.473c-0.275,1.93,0.656,3.573,1.525,5.2c1.994,3.733,2.776,8.859,3.682,12.978
			c1.815,8.255,1.82,16.703,2.609,25.084c0.775,8.255,1.875,16.334,2.167,24.629c0.005,0.127,0.034,0.231,0.077,0.316
			c0.005,0.081,0.011,0.162,0.015,0.244c-0.577,0.15-1.139,0.277-1.695,0.378c-1.364-0.362-2.921-0.319-4.443,0.05
			c-0.081-0.014-0.158-0.022-0.241-0.038c-3.381-0.639-3.555-2.198-4.314-5.312c-1.865-7.634-4.114-15.148-6.358-22.677
			c-2.271-7.626-4.685-15.203-7.422-22.675c-1.764-4.815-2.844-9.608-4.004-14.458c0.036-0.129,0.054-0.259,0.026-0.38
			c-0.538-2.338-0.814-4.526-0.085-6.843c0.103-0.328,0.352-1.2,0.234-1.685c-0.658-2.709-3.27-4.161-3.965-6.979
			c-1.826-7.406-2.953-15.132-4.166-22.663c-1.281-7.959-3.109-15.72-4.798-23.59c-1.28-5.964-0.79-9.052-6.719-11.351
			c-0.706-0.275-1.299,0.855-0.61,1.241c1.174,0.659,2.057,1.097,2.73,1.671c-2.349,5.267-2.224,11.743-2.66,17.383
			c-0.609,7.852-0.825,15.776-1.049,23.646c-0.095,3.322-0.277,6.642-0.387,9.963c-0.104-0.3-0.212-0.6-0.336-0.901
			c-0.021-0.052-0.055-0.085-0.082-0.127c-0.24-2.131-0.731-4.284-0.905-6.359c-0.485-5.772-0.403-11.666-0.501-17.456
			c-0.193-11.348,0.385-22.704,0.779-34.044c0.266-7.651,0.609-15.3,1.098-22.938c3.362,1.72,7.774,0.844,11.377,0.703
			c0.234-0.009,0.434-0.067,0.617-0.15c0.627,7.108,1.189,14.227,1.704,21.336c0.835,11.507,1.132,23.047,2.095,34.545
			c0.412,4.922,1.143,9.829,1.758,14.728c0.522,4.147,0.865,8.45,2.248,12.417c0.093,0.894,0.145,1.787,0.055,2.682
			c-0.043,0.444,0.357,0.823,0.775,0.855c5.977,0.447,12.219,0.909,18.304,0.294c-0.529,1.508-1.574,3.253-1.102,4.925
			C102.592,341.085,104.37,341.906,104.002,344.473z"/>
		<path style="opacity:0.5;fill:#142E4B;" d="M66.968,372.832c0.105-4.527,0.213-8.591-0.784-13.076
			c-0.824-3.712-1.138-7.858-3.099-11.183c-0.732-1.243,0.748-2.35-0.088-3.789c-0.533-0.916-0.714-1.684-0.62-2.478
			c-0.176-0.034-0.353-0.071-0.528-0.105c0.036-0.872,0.666-1.719,2.654-2.935c0.479-0.293,0.264-3.182,0.004-5.74
			c-0.125,0.076-0.26,0.137-0.407,0.164c-6.517,1.203-13.195,2.154-19.808,2.078c0.076,1.477,0.175,2.948,0.26,4.422
			c1.679,0.192,3.357,0.341,4.985,0.176c2.694-0.273,5.206-1.156,7.809-1.834c0.588-0.153,1.045,0.372,0.934,0.933
			c-0.563,2.804-0.703,4.85,1.135,7.415c0.645,0.898,1.184,1.862,1.033,3.024c-0.56,4.292,0.719,8.467,1.094,12.746
			c0.81,9.211,0.444,18.432-0.102,27.647c-0.263,4.429-0.368,8.851-0.565,13.278c-0.108,2.445-0.198,5.702-2.06,7.569
			c-1.936,1.942-4.501,2.514-7.019,2.152c1.712,1.425,4.452,1.713,6.704,1.351c0.07-0.113,0.159-0.207,0.264-0.287
			c0.004-0.048-0.005-0.088,0.006-0.139c0.002-0.016,0.004-0.03,0.007-0.045c0.06,0.024,0.14,0.026,0.206,0.044
			c0.879-0.355,2.027-0.927,3.021-0.813c2.249,0.262,1.563-1.333,1.407-3.249c-0.317-3.857-0.272-7.517,0.117-11.387
			C64.397,390.168,66.767,381.46,66.968,372.832z"/>
		<path style="opacity:0.5;fill:#142E4B;" d="M114.063,412.68c-0.043-0.085-0.072-0.189-0.077-0.316
			c-0.292-8.295-1.392-16.374-2.167-24.629c-0.789-8.381-0.794-16.829-2.609-25.084c-0.905-4.118-1.688-9.244-3.682-12.978
			c-0.869-1.627-1.801-3.271-1.525-5.2c0.368-2.566-1.41-3.388-1.967-5.358c-0.473-1.672,0.572-3.417,1.102-4.925
			c-6.085,0.615-12.327,0.153-18.304-0.294c-0.418-0.031-0.818-0.41-0.775-0.855c0.09-0.895,0.038-1.788-0.055-2.682
			c-1.383-3.967-1.726-8.27-2.248-12.417c-0.615-4.899-1.346-9.807-1.758-14.728c-0.963-11.498-1.26-23.038-2.095-34.545
			c-0.516-7.109-1.077-14.227-1.704-21.336c-0.184,0.083-0.383,0.142-0.617,0.15c-0.51,0.02-1.036,0.055-1.572,0.095
			c0.506,4.748,0.854,9.511,1.006,14.285c0.154,4.879,1.059,9.826,0.391,14.685c-0.098,0.711-1.066,0.658-1.387,0.181
			c-1.404-2.091-4.14-3.353-5.332-5.5c-0.959-1.725-1.256-3.489-1.266-5.456c-0.028-5.807,0.674-11.918-0.979-17.559
			c-0.078-0.267-0.008-0.483,0.127-0.645c-0.826-0.163-1.621-0.411-2.365-0.79c-0.488,7.638-0.832,15.286-1.098,22.938
			c-0.395,11.34-0.973,22.696-0.779,34.044c0.098,5.79,0.016,11.685,0.501,17.456c0.174,2.075,0.665,4.228,0.905,6.359
			c0.027,0.042,0.062,0.075,0.082,0.127c0.124,0.302,0.231,0.602,0.336,0.901c0.109-3.321,0.292-6.641,0.387-9.963
			c0.224-7.869,0.439-15.794,1.049-23.646c0.437-5.64,0.312-12.116,2.66-17.383c-0.674-0.574-1.557-1.012-2.73-1.671
			c-0.688-0.387-0.096-1.517,0.61-1.241c5.929,2.299,5.438,5.387,6.719,11.351c1.688,7.87,3.517,15.631,4.798,23.59
			c1.213,7.531,2.34,15.257,4.166,22.663c0.496,2.012,1.963,3.332,3.004,4.906c3.124,1.346,6.279,1.455,9.61,1.012
			c0.995-0.132,2.46-0.367,3.293,0.466c0.727,0.726,0.411,1.387,0.133,2.243c-1.054,3.237,2.035,2.829,3.104,4.448
			c1.048,1.589,0.826,3.378,1.202,5.181c0.559,2.683,1.212,5.34,1.882,7.997c1.507,5.971,2.678,11.965,3.524,18.066
			c1.234,8.909,3.551,18.545,2.341,27.573c-0.473,3.525-1.884,6.563-4.352,8.356c0.525,0.332,1.21,0.583,2.146,0.76
			c0.083,0.016,0.16,0.024,0.241,0.038c1.522-0.369,3.079-0.412,4.443-0.05c0.557-0.101,1.118-0.228,1.695-0.378
			C114.073,412.842,114.067,412.761,114.063,412.68z"/>
		<path style="fill:#DCEAF8;" d="M92.757,331.783c-1.917,0.036-4.704-0.767-6.771-0.329c-3.85-22.271-4.301-44.858-6.192-67.336
			c-0.933-11.076-1.831-22.179-3.142-33.217c-0.653-5.494-1.348-10.986-2.015-16.48c-0.299-2.469-0.429-5.133-1.119-7.576
			c5.163,1.843,9.12,1.097,12.081-1.374c0.357,0.061,0.791-0.105,1.014-0.396c3.49-4.554,5.633-10.909,7.776-16.195
			c2.729-6.732,5.641-13.309,7.863-20.233c0.143-0.451-0.476-0.46-0.65-0.139c-3.139,5.776-5.425,12.126-8.097,18.136
			c-0.524,1.181-4.096,9.176-6.057,13.742c-1.066,1.984-2.342,3.797-4.443,4.885c-4.438,2.298-10.845-1.265-14.779-3.216
			c-2.2-1.091-4.283-2.433-6.368-3.771c-2.103-0.934-4.007-2.21-5.9-3.507c-3.675-1.878-7.776-3.375-11.14-5.695
			c0.003-0.246,0.058-0.531,0.149-0.841c-0.1-0.772,0.56-1.849,1.354-2.832c0.451-0.747,0.88-1.367,1.079-1.607
			c1.666-2.002,3.803-3.124,6.049-4.308c0.037-0.02,0.064-0.05,0.097-0.074c1.976,1.71,4.136,3.186,6.375,4.557
			c0.017,0.008,0.032,0.006,0.049,0.015c1.882,1.016,3.901,1.728,5.552,3.123c0.02,0.017,0.027,0.037,0.043,0.056
			c2.137,1.052,4.337,1.972,6.326,3.306c0.06-0.096,0.131-0.181,0.193-0.271c0.563,0.439,1.169,0.944,1.107,1.295
			c-0.232,1.321,0.334,2.769,0.553,4.078c0.139,0.822,0.7,5.627,2.486,4.794c0.857-0.399,1.299-1.317,1.531-2.326
			c0.1-0.006,0.202-0.04,0.299-0.118c0.789-0.638,1.587-1.583,2.254-2.632c0.785-0.441,1.703-1.013,2.496-1.697
			c0.063,0.083,0.117,0.173,0.157,0.271c0.118,0.233,0.417,0.288,0.647,0.254c0.875-0.136,1.568-1.048,2.158-1.645
			c0.606-0.615,1.852-1.652,1.809-2.634c-0.095-2.207-0.592-4.484-2.69-5.438c4.741-8.744,7.615-19.992,7.351-29.638
			c-0.013-0.449-0.585-0.221-0.616,0.124c-0.241,2.63-0.581,5.263-1.024,7.882c-0.685-2.289-0.931-4.54-1.112-6.977
			c-0.041-0.542-0.718-0.276-0.749,0.15c-0.191,2.69-0.389,6.183,1.434,8.415c0.033,0.042,0.074,0.071,0.116,0.096
			c-1.266,6.738-3.263,13.344-6.307,19.464c-4.003-2.496-8.163-3.074-12.143-1.944c-0.035-4.066-0.63-8.149-1.059-12.188
			c-0.45-4.236,0.108-8.362,0.169-12.562c0.828-4.071,1.609-8.939,4.474-11.609c1.521,2.739,2.747,9.497,7.004,7.743
			c4.137-1.703,7.587-5.173,11.534-7.34c0.948-0.52,1.709-1.052,2.283-1.665c0.129,0.027,0.255,0.067,0.379,0.113
			c0.039-0.093,0.084-0.181,0.125-0.272c6.966,11.647,7.759,23.584,7.766,37.067c0.007,14.135-0.423,28.264-0.554,42.396
			c-0.009,0.91,1.238,0.484,1.274-0.254c0.117-2.321,0.212-4.643,0.313-6.966c0.833,1.798,1.598,3.492,1.07,5.718
			c-0.542,2.284-0.512,4.963-0.305,7.277c0.098,1.097,1.631,0.844,1.747-0.119c0.02-0.167,0.033-0.334,0.055-0.5
			c1.457,6.593,2.372,13.155,3.188,19.903c0.95,7.863,3.461,15.344,4.544,23.155c2.154,15.528,6.329,31.238,7.281,46.935
			c-0.305,0.147-0.569,0.408-0.612,0.697c-0.198,1.334-0.262,1.939-0.318,3.282c-0.428,0.97-0.231,1.581,0.592,1.834
			c-0.958,0.511-1.92,1.021-2.88,1.527c-4.12,2.182-8.413,3.686-12.997,4.572C102.3,331.617,97.442,331.698,92.757,331.783z"/>
		<g>
			<path style="fill:#DCEAF8;" d="M79.427,147.441c1.316-2.28,3.598-3.534,5.986-4.451c2.342-0.899,5.482-1.892,7.814-0.458
				c0.289,0.177,0.469,0.408,0.57,0.657c0.835-1.653,0.531-3.714-1.921-2.91c-1.499,0.493-3.009,1.085-4.546,1.453
				c-2.406,0.575-4.99,1.692-7.442,1.937c-1.311,0.13-2.396,0.519-3.317,1.086c0.904,1.051,1.574,2.474,2.129,3.488
				c0.1,0.182,0.204,0.348,0.313,0.503C79.046,148.331,79.167,147.891,79.427,147.441z"/>
			<path style="fill:#DCEAF8;" d="M62.267,144.088c0.492,0.493,0.484,1.132,0.223,1.729c-0.02,0.043-0.045,0.08-0.065,0.122
				c-0.011,0.067-0.02,0.133-0.041,0.204c-0.173,0.563-0.513,1.058-0.941,1.469c0.855-0.417,1.712-0.833,2.579-1.222
				c-0.103-0.28-0.208-0.554-0.308-0.826c-0.018-0.024-0.039-0.036-0.055-0.064c-0.246-0.453-0.475-0.898-0.699-1.364
				c-0.193-0.399-0.438-0.765-0.662-1.145c-0.219,0.214-0.43,0.508-0.623,0.755C61.896,143.813,62.103,143.924,62.267,144.088z"/>
			<path style="fill:#DCEAF8;" d="M44.654,190.515c-0.021,0.568-0.12,1.128-0.306,1.618c-0.74,1.965-3.33,3.101-5.223,3.55
				c-1.851,0.439-7.497,2.104-6.684-1.683c0.061-0.279,0.267-0.613,0.574-0.97c-0.25,0.203-0.5,0.408-0.746,0.612
				c-0.03-0.224,0.086-0.521,0.293-0.633c0.255-0.138,0.502-0.288,0.744-0.445c-0.743,0.247-1.491,0.484-2.244,0.681
				c-0.497,0.129-1.059,0.302-1.559,0.1c-1.961-0.79,0.557-2.751,2.447-3.987c-0.572,0.175-1.135,0.381-1.657,0.628
				c-1.075,0.919-2.364,1.435-3.948,1.01c-0.258-0.069-0.451-0.173-0.613-0.292c-0.931,3.119-1.243,6.221-0.529,9.159
				c3.588,2.089,8.54,0.262,12.41-0.399c5.074-0.869,9.996-2.199,15.018-3.304c0.317-0.07,0.638-0.128,0.955-0.195
				c-3.044-1.493-6.512-3.139-8.681-5.47C44.825,190.529,44.737,190.54,44.654,190.515z"/>
			<path style="fill:#DCEAF8;" d="M52.451,160.241c0.913-2.06,1.715-4.319,1.103-6.409c0.291,0.343,0.46,0.777,0.531,1.275
				c0.068,0.008,0.125,0.056,0.104,0.168c-0.017,0.087-0.044,0.172-0.063,0.26c0.029,0.697-0.096,1.48-0.289,2.267
				c0.844-1.568,1.975-3.727,3.523-3.855c0.145-0.012,0.24,0.103,0.231,0.225c0.419-0.514,0.955-0.954,1.709-1.292
				c2.027-0.909,4.541-1.448,5.25-3.57c-0.028-0.356-0.05-0.715-0.086-1.071c-2.346,1.534-5.096,2.647-7.576,3.895
				c-1.242,0.626-3.686-0.017-2.236-1.706c0.456-0.533,0.793-1.212,1.13-1.896c-1.558,1.3-3.021,2.623-4.426,4.114
				c0.294,0.27,0.575,0.583,0.828,0.987c1.919,3.067-2.683,8.081-4.169,10.313c-3.309,4.966-5.563,10.59-9.289,15.188
				c-0.762,1.633-1.941,3.117-3.064,4.46c-0.438,0.524-0.91,1.001-1.394,1.463c-0.086,0.123-0.175,0.244-0.256,0.368
				c-0.612,0.935-1.268,1.902-2.074,2.651c-0.135,0.193-0.254,0.394-0.399,0.58c0.81-0.45,1.645-0.813,2.336-1.083
				c0.957-0.373,1.976-0.742,3.024-1.049c3.05-3.664,5.896-7.834,8.433-12.245c0.297-0.765,0.608-1.513,0.922-2.245
				c0.692-1.158,1.377-2.322,2.047-3.494C49.536,165.704,50.913,162.925,52.451,160.241z"/>
			<path style="fill:#DCEAF8;" d="M68.315,177.265c-0.553,2.104-1.512,4.049-3.306,4.789c-2.323,0.958-4.45-0.438-6.382-1.703
				c-1.779-1.164-4.519-1.792-5.179-4.061c-0.801-2.751-2.852-4.01-1.61-6.905c1.65-3.852,2.869-7.644,4.158-11.623
				c0.394-1.214,0.717-2.303,1.313-3.203c-1.898,2.059-3.207,5.249-4.541,7.658c-0.531,0.96-1.074,1.923-1.617,2.887
				c-1.178,2.899-2.591,5.922-4.51,8.215c1.367-0.357,2.875-0.24,3.842,0.942c0.646,0.789,1.105,1.684,1.365,2.674
				c0.109,0.418,0.256,0.883,0.273,1.328c0.189-0.062,0.379-0.13,0.57-0.174c0.863,0.722,2.052,1.064,3.021,1.627
				c2.625,1.521,5.287,2.974,7.896,4.52c0.628,0.373,1.25,0.756,1.869,1.143c0.003-0.001,0.004-0.005,0.006-0.006
				c0.811-0.654,1.639-1.222,2.482-1.715c-0.101-0.104-0.172-0.249-0.164-0.475c0.087-1.934,0.373-3.866,0.502-5.802
				C68.308,177.341,68.313,177.304,68.315,177.265z"/>
			<path style="fill:#DCEAF8;" d="M40.515,205.432c3.955-0.711,7.756-2.428,11.719-2.944c2.869-0.374,4.834,0.108,6.839,2.201
				c1.415,1.478,3.983,5.446,6.493,6.724c0.458-2.615,0.938-5.229,1.078-7.852c-3.272-1.86-6.392-3.956-9.715-5.841
				c-1.436,0.258-2.862,0.533-4.268,0.86c-4.904,1.14-9.795,2.306-14.739,3.214c-0.116,1.389-0.267,2.775-0.429,4.161
				C38.497,205.781,39.505,205.613,40.515,205.432z"/>
			<path style="fill:#DCEAF8;" d="M52.911,259.329c1.538-0.845,2.423-2.165,1.75-4.134c-0.21-0.226-0.432-0.443-0.673-0.643
				c-2.452-0.695-5.797-0.563-7.183-0.752c-4.125-0.563-8.229-1.635-12.387-0.837c-0.061,0.4-0.096,0.823-0.07,1.301
				c0.234,4.322,3.87,4.873,7.165,4.952c2.805,0.067,5.606-0.004,8.41,0.04C50.822,259.27,51.903,259.369,52.911,259.329z"/>
			<path style="fill:#DCEAF8;" d="M61.59,331.302c-8.218-0.005-16.973,1.781-23.939-3.128c-5.658-3.988-7.429-10.53-7.613-17.175
				c-0.238-8.572,0.781-17.018,0.205-25.608c-0.234-3.482-0.469-6.959-0.644-10.44c-0.111,0.912-0.214,1.822-0.305,2.729
				c-1.107,11.073-2.234,22.212-2.186,33.352c0.022,5.222,0.756,10.402,0.847,15.586c0.002,0.133-0.104,3.375-0.182,3.355
				c2.213,0.56,4.511,1.747,6.791,1.93c5.391,0.434,10.849,1.716,16.277,1.345c3.623-0.248,7.188-0.946,10.78-1.465
				c-0.026-0.108-0.05-0.221-0.036-0.37C61.589,331.376,61.587,331.338,61.59,331.302z"/>
			<path style="fill:#DCEAF8;" d="M98.543,148.584c0.262,0.138,0.494,0.301,0.74,0.454c-0.74-1.621-1.573-3.234-2.534-4.84
				c-0.041,0.092-0.086,0.18-0.125,0.272c-0.124-0.046-0.25-0.086-0.379-0.113c-0.574,0.613-1.335,1.145-2.283,1.665
				c-1.246,0.685-2.442,1.503-3.627,2.351C93.073,147.551,95.882,147.186,98.543,148.584z"/>
			<path style="fill:#DCEAF8;" d="M106.584,232.952c0.314-0.081,0.701,0.044,0.855,0.348c0.732,1.437,1.726,4.125,2.227,6.893
				c0.238,0.516,0.479,1.03,0.72,1.543c-0.612-4.331-1.319-8.621-2.269-12.919c-0.021,0.166-0.035,0.333-0.055,0.5
				c-0.116,0.963-1.649,1.216-1.747,0.119c-0.207-2.314-0.237-4.993,0.305-7.277c0.527-2.226-0.237-3.92-1.07-5.718
				c-0.102,2.322-0.196,4.645-0.313,6.966c-0.019,0.37-0.338,0.656-0.651,0.736C104.234,227.17,103.886,233.648,106.584,232.952z"/>
			<path style="fill:#DCEAF8;" d="M106.317,281.965c-0.568-2.941-0.978-5.964-1.94-8.811c-0.341-1.008-0.968-2.509-1.828-3.868
				c-1.585-1.703-3.681-2.206-6.297-2.491c-0.003,0.005-0.004,0.012-0.007,0.018c-0.445,0.871-1.754,0.103-1.31-0.766
				c1.437-2.809-2.312-9.74,2.6-9.928c2.784-0.107,6.666-0.275,9.064-1.866c2.235-1.483,2.932-4.364-0.343-4.315
				c-0.839,0.012-1.682,0.056-2.518-0.02c-0.179-0.016-0.331-0.094-0.461-0.195c-2.092,0.154-4.246,0.036-6.268,0.193
				c-5.224,0.406-10.252,1.332-15.089,3.393c-0.095,0.04-0.197,0.053-0.302,0.054c0.895,0.979,1.789,1.957,2.684,2.936
				c0.749,0.045,1.498,0.038,2.245-0.023c1.494-0.121,2.958-0.239,4.458-0.188c0.408,0.014,0.766,0.334,0.759,0.758
				c-0.034,1.873-0.204,3.746-0.296,5.617c-0.041,0.828-0.402,4.479-0.176,4.68c0.472,0.421,0.188,1.009-0.268,1.203
				c-1.639,3.953-4.204,6.781-4.314,11.457c-0.098,4.082-0.117,8.224,0.287,12.291c0.326,3.286,0.555,8.163,2.617,10.94
				c2.519,3.392,9.773,1.207,12.723-0.539c4.46-2.64,5.97-6.031,5.497-11.125C107.542,288.208,106.92,285.082,106.317,281.965z
				 M100.943,298.918c-1.984,0.253-2.166,1.747-3.817,2.202c-0.677,0.186-2.36-1.59-2.976-0.82c-0.133,1.331-0.7,2.738-2.137,1.391
				c-2.587-2.426-2.2-9.537-2.493-12.75c-0.396-4.342-2.097-19.195,4.136-21.105c0.103-0.07,0.232-0.095,0.374-0.086
				c0.322-0.069,0.656-0.117,1.019-0.119c0.444-0.002,0.677,0.313,0.717,0.655c1.765,0.548,3.414,1.035,4.687,2.585
				c1.094,1.332,1.659,3.3,2.066,4.935c1.292,5.194,2.808,10.788,2.615,16.186C105.013,295.379,104.772,298.429,100.943,298.918z"/>
			<path style="fill:#DCEAF8;" d="M122.199,322.791c0.057-1.343,0.12-1.948,0.318-3.282c0.043-0.289,0.308-0.551,0.612-0.697
				c-0.952-15.697-5.127-31.407-7.281-46.935c-0.328-2.364-0.792-4.696-1.298-7.019c0.14,5.277,0.72,10.563,1.191,15.813
				c0.521,5.805,1.211,11.581,1.869,17.37c0.6,5.267,1.604,10.753,1.635,16.057c0.025,4.414-1.201,7.495-4.621,10.286
				c-3.184,2.598-6.681,4.625-10.444,6.256c-0.577,0.251-1.163,0.485-1.752,0.712c1.511-0.146,3.012-0.342,4.486-0.627
				c4.584-0.887,8.877-2.391,12.997-4.572c0.96-0.507,1.922-1.017,2.88-1.527C121.969,324.372,121.771,323.761,122.199,322.791z"/>
			<path style="fill:#DCEAF8;" d="M83.005,205.271c2.102-1.088,3.377-2.9,4.443-4.885c1.961-4.566,5.532-12.561,6.057-13.742
				c2.672-6.01,4.958-12.359,8.097-18.136c0.175-0.321,0.793-0.313,0.65,0.139c-2.223,6.925-5.134,13.502-7.863,20.233
				c-2.144,5.286-4.286,11.642-7.776,16.195c-0.223,0.29-0.656,0.456-1.014,0.396c-2.961,2.471-6.918,3.217-12.081,1.374
				c0.405,1.436,0.612,2.945,0.779,4.449c3.808,0.61,7.59,0.227,11.382-0.171c1.517-0.391,2.941-0.997,3.99-2.271
				c2.886-3.506,3.865-7.908,5.119-12.163c1.194-4.05,2.9-7.877,4.519-11.769c1.587-3.814,3.066-7.649,3.966-11.69
				c0.274-1.234,0.536-2.484,0.858-3.715c-0.369-4.787-1.069-9.413-2.412-13.935c0.155,7.788-6.204,20.073-9.404,25.7
				c-0.217,0.51-0.433,1.019-0.652,1.533c-1.026,2.397-1.758,4.899-3.702,6.737c-0.121,0.115-0.254,0.164-0.387,0.188
				c0.002,0.036,0.006,0.071,0.008,0.106c0.043,0.981-1.202,2.019-1.809,2.634c-0.59,0.597-1.283,1.509-2.158,1.645
				c-0.23,0.034-0.529-0.02-0.647-0.254c-0.04-0.099-0.095-0.188-0.157-0.271c-0.793,0.685-1.711,1.256-2.496,1.697
				c-0.667,1.049-1.465,1.994-2.254,2.632c-0.097,0.078-0.199,0.112-0.299,0.118c-0.232,1.009-0.674,1.927-1.531,2.326
				c-0.832,0.388-1.396-0.45-1.777-1.536c-6.627-0.76-14.429-3.874-19.859-7.757c-3.264-2.334-6.088-5.182-5.836-8.648
				c-0.479,0.411-0.934,0.862-1.357,1.371c-0.199,0.24-0.628,0.86-1.079,1.607c-0.794,0.983-1.454,2.06-1.354,2.832
				c-0.091,0.31-0.146,0.595-0.149,0.841c3.363,2.32,7.465,3.817,11.14,5.695c1.893,1.297,3.798,2.573,5.9,3.507
				c2.085,1.339,4.168,2.681,6.368,3.771C72.16,204.006,78.567,207.568,83.005,205.271z"/>
			<path style="fill:#DCEAF8;" d="M90.307,158.752c-0.146,0.096-0.333,0.114-0.513,0.083c0.175,1.327,0.415,2.628,0.807,3.938
				c0.285-1.685,0.512-3.377,0.713-5.07C91.052,158.108,90.73,158.471,90.307,158.752z"/>
			<path style="fill:#DCEAF8;" d="M81.007,180.536c-3.039,0.485-6.09-0.227-9.216,0.201c0.015,0.414,0.046,0.827,0.049,1.24
				c3.979-1.13,8.14-0.552,12.143,1.944c3.044-6.12,5.041-12.726,6.307-19.464c-0.042-0.024-0.083-0.054-0.116-0.096
				c-0.459-0.562-0.789-1.204-1.023-1.893c-0.045,4.509-1.326,9.162-3.419,12.856C84.767,177.026,83.291,180.171,81.007,180.536z"/>
			<path style="fill:#DCEAF8;" d="M73.526,152.456c0.906-0.405,2.084-0.372,2.994-0.001c0.953,0.388,1.85,0.526,2.717,0.449
				c-1.856-1.604-2.766-5.398-3.813-7.286c-2.197,2.048-3.167,5.389-3.874,8.671C72.022,153.53,72.61,152.867,73.526,152.456z"/>
		</g>
	</g>
	<path style="fill:#4B1E0A;" d="M107.445,249.431c-3.416,0.389-6.989,0.623-10.567,0.955c-0.102-0.285-0.33-0.503-0.768-0.522
		c-0.699-0.03-1.236,0.282-1.662,0.766c-4.602,0.503-9.155,1.266-13.332,2.838c-0.523,0.196-0.529,1.117,0.082,1.078
		c0.941,2.077,7.721,0.323,9.312,0.189c0.73-0.061,1.532-0.102,2.37-0.139c-0.938,3.799-0.893,7.308-0.514,11.039
		c-0.004,0.001-0.008,0.002-0.011,0.003c-0.419,0.105-0.72,0.125-1.044,0.462c-0.427,0.442-0.385,1.197-0.095,1.74
		c-1.779,1.054-3.214,2.805-4.004,5.048c-1.253,3.558-1.024,8.205-1.229,11.979c-0.089,1.599-0.117,3.339,0.16,4.952
		c0.055,2.218,0.215,4.42,0.494,6.567c0.293,2.25,0.606,4.973,2.293,6.683c1.709,1.732,3.213,1.339,5.115,0.722
		c0.191,0.229,0.477,0.358,0.82,0.302c0.651,0.427,1.467-0.129,1.795-0.796c0.182-0.235,0.298-0.514,0.289-0.768
		c-0.012-0.322-0.083-0.633-0.18-0.939c-0.088-0.281-0.271-0.643-0.276-0.938c-0.015-0.904-0.665-1.51-1.568-1.395
		c-0.835,0.106-1.582,0.726-1.774,1.559c-0.088,0.371,0.014,0.618,0.137,0.886c-1.525,0.175-2.816,0.455-3.426-1.465
		c-0.837-2.638-0.826-5.431-1.163-8.159c-0.085-0.694-0.171-1.393-0.251-2.091c-0.192-1.383-0.336-2.772-0.371-4.195
		c-0.063-1.146-0.076-2.294-0.035-3.435c-0.182-3.08,0.01-6.185,1.111-8.963c0.635-1.603,2.984-5.393,5.156-4.806
		c0.646-0.192,1.424-0.076,2.215,0.228c0.793,0.197,1.465,0.597,2.036,1.148c0.712,0.531,1.307,1.122,1.634,1.629
		c1.71,2.646,1.835,5.675,2.402,8.686c0.326,1.736,0.672,3.46,0.905,5.195c0.45,2.426,0.789,4.865,0.896,7.337
		c0.157,1.135,0.396,2.73-0.119,3.858c-0.162,0.769-0.537,1.444-1.392,1.908c-0.223,0.121-1.32,0.637-1.953,0.845
		c-0.088-0.22-0.182-0.434-0.283-0.63c-0.554-1.069-2.03-0.728-2.635,0.076c-0.39,0.516-0.44,1.134-0.199,1.724
		c0.23,0.563,0.297,1.126,0.482,1.704c0.174,0.541,0.605,0.632,1.013,0.489c0.015,0.004,0.024,0.014,0.04,0.017
		c0.769,0.162,1.355-0.374,1.658-1.028c2.317-0.411,5.354-2.769,5.373-4.718c0.066-6.087-1.465-12.143-2.006-18.185
		c-0.324-3.614-1.022-7.036-3.408-9.654c-0.287-0.349-0.609-0.665-0.974-0.942c-0.159-0.134-0.317-0.269-0.487-0.397
		c-0.1-0.076-0.21-0.107-0.322-0.117c-1.354-0.705-2.707-1.027-4.001-1.031c0.004-0.013,0.006-0.019,0.012-0.035
		c0.145-0.914-0.521-1.424-1.355-1.388c0.307-2.811,0.396-5.662,0.903-8.472c0.138-0.768,0.368-1.531,0.566-2.285
		c0.007-0.021,0.012-0.041,0.018-0.061c4.015-0.184,8.458-0.54,11.344-2.349c0.052-0.032,0.083-0.075,0.127-0.111
		c0.225-0.031,0.451-0.06,0.678-0.09C108.938,251.745,109.167,249.234,107.445,249.431z"/>
	<path style="fill:#4B1E0A;" d="M138.579,90.011c-0.908-2.513-4.187,0.987-4.957,1.914c-1.352,1.627-2.171,3.603-2.697,5.628
		c-0.352,1.352-0.862,3.373,0.36,4.37c0.708,0.578,1.482-0.306,1.555-0.973c0.124-1.128,0.169-2.206,0.296-3.272
		c0.064-0.011,0.126-0.03,0.187-0.064c0.998-0.56,1.53-1.656,2.813-1.659c0.606-0.001,0.964-0.952,0.254-1.093
		c-0.92-0.185-2.014,0.095-2.832,0.682c0.097-0.335,0.206-0.672,0.347-1.012c0.173-0.418,3.058-5.552,3.899-4.04
		C138.044,90.926,138.725,90.41,138.579,90.011z"/>
	<path style="fill:#4B1E0A;" d="M87.988,91.671c0.364,3.656,2.135,6.47,3.963,6.29c1.825-0.181,3.017-3.288,2.657-6.94
		c-0.361-3.655-2.135-6.47-3.963-6.293C88.818,84.909,87.63,88.019,87.988,91.671z M92.34,87.257
		c0.579-0.057,1.142,0.836,1.257,1.992c0.113,1.154-0.266,2.141-0.842,2.194c-0.58,0.06-1.137-0.831-1.256-1.989
		C91.388,88.3,91.765,87.315,92.34,87.257z"/>
	<path style="fill:#4B1E0A;" d="M38.098,91.671c0.364,3.656,2.136,6.47,3.963,6.29c1.826-0.181,3.017-3.288,2.657-6.94
		c-0.361-3.655-2.135-6.47-3.963-6.293C38.927,84.909,37.74,88.019,38.098,91.671z M42.448,87.257
		c0.58-0.057,1.143,0.836,1.258,1.992c0.113,1.154-0.266,2.141-0.842,2.194c-0.58,0.06-1.137-0.831-1.255-1.989
		C41.497,88.3,41.874,87.315,42.448,87.257z"/>
	<path style="fill:#4B1E0A;" d="M42.146,78.607c-1.707-1.642-4.333-1.318-5.764,0.526c-0.008,0.01-0.014,0.024-0.022,0.035
		c-0.27,0.309-0.524,0.647-0.738,1.052c-0.39,0.732,0.475,1.494,1.112,0.901c0.055-0.052,0.113-0.102,0.171-0.154
		c0.006,0,0.01,0.002,0.016,0.002c0.604-0.016,1.083-0.178,1.611-0.469c0.184-0.102,0.361-0.135,0.533-0.127
		c0.416,0.146,0.814,0.377,1.16,0.603C41.624,81.887,43.359,79.775,42.146,78.607z"/>
	<path style="fill:#4B1E0A;" d="M96.14,78.132c-0.594-1.632-2-2.385-3.555-2.517c-0.862-0.27-1.785-0.331-2.842-0.023
		c-1.861,0.539-3.764,1.968-4.264,3.883c-0.025,0.069-0.054,0.137-0.077,0.21c0.013,0.001,0.023,0.002,0.036,0.002
		c-0.03,0.146-0.072,0.284-0.085,0.433c-0.174,2.061,2.71,1.445,3.197-0.223l0.025,0.002c0.031-0.134,0.216-0.274,0.46-0.407
		c0.56-0.088,1.108-0.219,1.682-0.335c0.139-0.028,0.386-0.035,0.658-0.019c0.688,0.281,1.311,0.891,1.848,1.3
		C94.583,81.471,96.698,79.668,96.14,78.132z"/>
	<path style="fill:#4B1E0A;" d="M68.046,108.233c-1.758,3.03-8.283,6.165-11.184,2.62c-1.57-1.922,0.994-5.668,1.645-7.521
		c0.713-2.036,1.236-4.059,1.305-6.219c0.017-0.488-0.632-0.303-0.721,0.048c-1.068,4.194-2.805,7.61-4.811,11.397
		c-1.174,2.219-0.367,5.407,2.082,6.367c5.142,2.015,10.609-1.553,12.441-6.407C69.025,107.929,68.331,107.741,68.046,108.233z"/>
	<path style="fill:#4B1E0A;" d="M85.77,119.271c-0.114-0.226-0.358-0.356-0.738-0.206c-6.756,2.682-14.213,4.774-21.542,4.584
		c-1.41-0.036-13.564-0.362-13.893-2.972c-0.047-0.364-0.551-0.293-0.592,0.041c-0.267,2.194,2.804,3.146,5.359,3.646
		c4.455,3.185,8.814,7.32,14.615,7.313c6.531-0.008,13.51-6.264,16.916-11.271C86.21,119.944,86.067,119.483,85.77,119.271z"/>
	<path style="fill:#EE5D69;" d="M66.808,129.613c-3.63-0.679-6.64-2.934-9.788-4.806c8.751,1.485,18.122,0.176,26.271-3.479
		C79.29,125.813,72.565,130.69,66.808,129.613z"/>
	<path style="fill:#EE5D69;" d="M70.298,125.836c-2.69-0.001-5.742,0.543-8.038,2.096c1.438,0.755,2.931,1.379,4.548,1.682
		c2.76,0.516,5.738-0.343,8.535-1.863C74.06,126.551,72.335,125.837,70.298,125.836z"/>
	<path style="fill:#4B1E0A;" d="M55.037,254.531c-1.534-0.485-3.091-0.447-4.661-0.365c-2.031-0.173-4.064-0.381-6.078-0.566
		c-3.071-0.281-6.006-1.193-9.127-1.126c-0.676,0.015-1.633,0.938-1.055,1.634c0.145,0.172,0.31,0.319,0.483,0.456
		c0.029,0.092,0.073,0.182,0.145,0.262c1.591,1.779,5.263,1.499,7.453,1.74c1.639,0.18,3.267,0.373,4.908,0.551
		c1.27,0.138,2.76-0.067,4.165-0.106c0.916,0.135,1.833,0.265,2.767,0.311C55.359,257.387,56.634,255.036,55.037,254.531z"/>
	<g>
		<circle style="opacity:0.5;fill:#00B3F0;" cx="38.069" cy="89.118" r="17.938"/>
		<path style="opacity:0.3;fill:#FFFEFE;" d="M21.364,82.622l16.377,24.417c0.109,0.002,0.217,0.017,0.328,0.017
			c2.755,0,5.353-0.639,7.686-1.749l-19.745-29.44C23.979,77.715,22.378,80.017,21.364,82.622z"/>
		<path style="opacity:0.3;fill:#FFFEFE;" d="M53.72,97.87L35.913,71.322c-1.136,0.137-2.24,0.372-3.302,0.71l19.192,28.615
			C52.526,99.787,53.167,98.857,53.72,97.87z"/>
	</g>
	<g>
		<path style="opacity:0.5;fill:#00B3F0;" d="M108.258,88.993c0,9.907-8.031,17.938-17.938,17.938
			c-9.906,0-17.938-8.031-17.938-17.938c0-9.907,8.031-17.938,17.938-17.938C100.227,71.055,108.258,79.086,108.258,88.993z"/>
		<path style="opacity:0.3;fill:#FFFEFE;" d="M73.614,82.497l16.377,24.417c0.109,0.002,0.217,0.017,0.328,0.017
			c2.755,0,5.354-0.639,7.687-1.749l-19.745-29.44C76.229,77.59,74.628,79.892,73.614,82.497z"/>
		<path style="opacity:0.3;fill:#FFFEFE;" d="M105.969,97.745L88.163,71.197c-1.136,0.137-2.24,0.372-3.302,0.71l19.191,28.615
			C104.775,99.662,105.416,98.732,105.969,97.745z"/>
	</g>
	<path style="fill:#4B1E0A;" d="M131.505,85.779c-7.301-0.002-14.527,0.724-21.786,1.111c-1.078-9.773-9.354-17.379-19.415-17.379
		c-10.324,0-18.758,8.012-19.471,18.153c-2.022-1.831-5.245-2.384-7.916-1.985c-1.624,0.241-3.824,1-5.398,2.243
		c-0.588-10.264-9.072-18.411-19.483-18.411c-10.792,0-19.541,8.748-19.541,19.54c0,10.792,8.749,19.541,19.541,19.541
		c10.038,0,18.298-7.572,19.403-17.314c1.648-1.36,3.088-2.317,5.513-2.766c3.782-0.699,5.399,1.438,8.036,3.348
		c1.364,9.458,9.479,16.732,19.316,16.732c10.791,0,19.54-8.749,19.54-19.541c0-0.139-0.018-0.272-0.019-0.409
		c3.102,0.347,6.533-0.148,9.547-0.242c3.979-0.123,7.979,0.035,11.915-0.645C132.21,87.596,132.713,85.78,131.505,85.779z
		 M38.035,106.685c-9.679,0-17.524-7.846-17.524-17.523c0-9.677,7.846-17.523,17.524-17.523c9.677,0,17.524,7.847,17.524,17.523
		C55.559,98.839,47.712,106.685,38.035,106.685z M90.304,106.685c-9.678,0-17.524-7.846-17.524-17.523
		c0-9.677,7.847-17.523,17.524-17.523c9.678,0,17.522,7.847,17.522,17.523C107.826,98.839,99.981,106.685,90.304,106.685z"/>
	<path style="fill:#FFFFFF;" d="M129.125,20.951c-0.083-0.266-0.455-0.136-0.402,0.125c0.365,1.82,0.001,3.405-0.547,5.134
		c-0.091,0.286,0.338,0.408,0.475,0.169C129.576,24.748,129.679,22.718,129.125,20.951z"/>
	<path style="fill:#FFFFFF;" d="M139.48,25c-1.705-0.606-3.722-0.124-5.336,0.545c-0.114,0.047-0.064,0.225,0.059,0.187
		c1.792-0.569,3.339-0.499,5.164-0.205C139.72,25.584,139.801,25.114,139.48,25z"/>
	<path style="fill:#FFFFFF;" d="M30.384,40.633c-9.818,3.221-11.351,15.599-6.661,23.554c0.052,0.087,0.2,0.021,0.162-0.074
		c-3.431-8.721-1.622-17.95,6.612-23.233C30.626,40.796,30.532,40.584,30.384,40.633z"/>
	<path style="fill:#FFFFFF;" d="M112.225,15.902c-7.723-1.887-16.089-3.049-24.037-3.248c-7.944-0.2-16.229,1.658-23.991,3.214
		c-14.362,2.879-28.273,8.813-37.801,20.245c-0.033,0.039,0.023,0.09,0.057,0.053c4.646-5.028,10.978-8.938,17.061-11.995
		c6.637-3.337,13.879-5.376,21.126-6.876c7.685-1.59,15.751-3.131,23.614-3.157c8.092-0.027,15.907,1.83,23.932,2.244
		C112.469,16.396,112.482,15.965,112.225,15.902z"/>
	<path style="fill:#FFFFFF;" d="M116.679,17.855c-0.783-0.62-1.896-1.031-2.899-1.036c-0.54-0.002-0.527,0.736-0.074,0.88
		c0.862,0.275,1.57,0.586,2.321,1.096C116.565,19.162,117.186,18.256,116.679,17.855z"/>
	<path style="fill:#FFFFFF;" d="M135.907,84.612c-0.026,0.021-0.011,0.065,0.026,0.056c2.326-0.604,3.394,1.021,3.918,3.04
		c0.459,1.769,0.023,3.43,0.139,5.194c0.018,0.269,0.351,0.394,0.536,0.195C142.912,90.542,140.016,81.235,135.907,84.612z"/>
	<path style="fill:#FFFFFF;" d="M140.209,94.251c-0.032-0.308-0.514-0.383-0.564-0.047c-0.114,0.761-0.354,1.496-0.53,2.244
		c-0.084,0.358,0.42,0.518,0.592,0.21C140.116,95.924,140.296,95.089,140.209,94.251z"/>
	<path style="fill:#FFFFFF;" d="M60.911,95.729c-0.052-0.127-0.221-0.093-0.229,0.04c-0.198,2.974-0.716,5.207-1.944,7.922
		c-0.873,1.927-2.039,4.18-1.664,6.344c0.094,0.545,0.758,0.602,0.941,0.079c0.896-2.562,1.638-5.2,2.555-7.779
		C61.311,100.251,61.761,97.831,60.911,95.729z"/>
	<path style="fill:#FFFFFF;" d="M60.952,111.464c-0.349-0.165-0.704-0.09-1.077-0.125c-0.426-0.04-0.847-0.208-1.211-0.426
		c-0.216-0.13-0.469,0.159-0.33,0.361c0.283,0.415,0.605,0.7,1.091,0.857c0.469,0.152,1.145,0.255,1.553-0.083
		C61.163,111.896,61.208,111.586,60.952,111.464z"/>
	<path style="fill:#FFFFFF;" d="M78.283,121.034c-8.889,1.389-18.069,2.574-26.829-0.408c-0.161-0.054-0.221,0.185-0.094,0.263
		c7.706,4.767,18.882,3.862,27.044,0.839C78.764,121.595,78.7,120.968,78.283,121.034z"/>
	<path style="fill:#FFFFFF;" d="M35.124,68.412c-1.652-0.291-3.824,0.373-5.219,1.248c-0.213,0.134-0.122,0.543,0.156,0.498
		c0.766-0.125,1.502-0.372,2.254-0.562c0.937-0.236,1.9-0.283,2.84-0.49C35.511,69.028,35.468,68.473,35.124,68.412z"/>
	<path style="fill:#FFFFFF;" d="M76.717,73.374c-3.937,1.621-7.302,6.753-6.785,11.021c0.016,0.126,0.206,0.157,0.231,0.019
		c0.391-2.085,0.96-3.985,2.094-5.795c1.24-1.979,3.162-3.155,4.746-4.792C77.188,73.636,76.976,73.267,76.717,73.374z"/>
	<path style="fill:#FFFFFF;" d="M49.023,70.899c-0.034-0.018-0.071,0.033-0.04,0.057c2.181,1.675,4.035,3.716,5.447,6.076
		c1.588,2.657,2.157,5.566,3.088,8.466c0.174,0.54,1.074,0.416,1-0.175C57.752,79.257,54.453,73.761,49.023,70.899z"/>
	<path style="fill:#FFFFFF;" d="M47.077,130.097c-3.659-2.545-7.41-4.784-10.702-7.821c-3.657-3.373-6.493-7.309-8.365-11.914
		c-0.036-0.09-0.185-0.077-0.176,0.03c0.342,4.409,3.085,8.021,5.999,11.145c3.678,3.942,7.926,7.035,12.988,8.928
		C47.038,130.547,47.304,130.255,47.077,130.097z"/>
	<g>
		<path style="opacity:0.3;fill:#FFFFFF;" d="M37.843,103.71c-4.527-6.985-8.725-14.357-14.645-20.305
			c-0.029-0.029-0.072,0.011-0.055,0.044c3.988,7.202,9.094,14.216,14.545,20.39C37.767,103.926,37.904,103.804,37.843,103.71z"/>
		<path style="opacity:0.3;fill:#FFFFFF;" d="M42.786,103.11c-2.324-4.444-4.93-8.72-7.663-12.923
			c-1.381-2.124-2.702-4.352-4.315-6.309c-1.539-1.866-2.573-4.178-4.318-5.853c-0.084-0.081-0.196,0.031-0.148,0.124
			c1.115,2.174,2.752,3.912,3.795,6.151c1.071,2.301,2.619,4.382,3.991,6.512c2.712,4.21,5.075,8.738,8.457,12.466
			C42.69,103.396,42.852,103.234,42.786,103.11z"/>
		<path style="opacity:0.3;fill:#FFFFFF;" d="M51.22,96.933c-2.256-3.928-4.971-7.651-7.398-11.48
			c-2.676-4.218-5.304-8.495-8.491-12.318c-0.069-0.083-0.198-0.009-0.146,0.092c0.754,1.42,1.689,2.403,2.262,3.962
			c0.33,0.901,0.92,1.724,1.418,2.537c1.304,2.127,2.666,4.222,4.006,6.325c2.454,3.849,4.992,7.729,8.117,11.077
			C51.109,97.257,51.302,97.076,51.22,96.933z"/>
	</g>
	<g>
		<path style="opacity:0.3;fill:#FFFFFF;" d="M90.26,104.126c-4.528-6.985-8.726-14.357-14.646-20.305
			c-0.029-0.029-0.072,0.011-0.054,0.044c3.987,7.202,9.093,14.216,14.545,20.39C90.183,104.342,90.321,104.22,90.26,104.126z"/>
		<path style="opacity:0.3;fill:#FFFFFF;" d="M95.202,103.526c-2.324-4.444-4.93-8.72-7.662-12.923
			c-1.381-2.124-2.702-4.353-4.315-6.309c-1.54-1.866-2.573-4.178-4.318-5.853c-0.084-0.081-0.196,0.031-0.148,0.124
			c1.114,2.174,2.752,3.912,3.794,6.151c1.072,2.301,2.619,4.382,3.992,6.512c2.711,4.21,5.074,8.738,8.457,12.466
			C95.107,103.813,95.269,103.651,95.202,103.526z"/>
		<path style="opacity:0.3;fill:#FFFFFF;" d="M103.636,97.349c-2.255-3.928-4.97-7.651-7.398-11.48
			c-2.676-4.218-5.303-8.495-8.49-12.318c-0.07-0.084-0.199-0.009-0.146,0.092c0.755,1.42,1.69,2.403,2.262,3.962
			c0.331,0.901,0.921,1.724,1.419,2.537c1.304,2.127,2.665,4.222,4.006,6.325c2.453,3.849,4.991,7.729,8.117,11.077
			C103.525,97.673,103.719,97.492,103.636,97.349z"/>
	</g>
	<path style="fill:#FFFFFF;" d="M90.56,143.395c-1.513,0.428-2.852,1.829-4.158,2.683c-1.625,1.063-3.381,1.847-5.179,2.565
		c-0.28,0.111-0.206,0.487,0.088,0.504c1.898,0.106,3.621-0.846,5.225-1.757c1.487-0.846,3.608-1.916,4.483-3.45
		C91.19,143.638,90.867,143.307,90.56,143.395z"/>
	<path style="fill:#FFFFFF;" d="M49.477,156.323c-2.044,2.358-3.524,5.293-5.421,7.795c-1.92,2.533-3.959,4.97-5.98,7.421
		c-4.003,4.854-8.469,10.246-10.781,16.156c-0.202,0.519,0.451,0.837,0.76,0.387c3.787-5.525,7.233-11.196,11.289-16.555
		c1.922-2.539,3.883-5.051,5.742-7.637c1.65-2.295,3.685-4.773,4.56-7.481C49.675,156.315,49.538,156.253,49.477,156.323z"/>
	<path style="fill:#FFFFFF;" d="M42.444,189.345c-1.951-0.148-3.879,0.828-5.607,1.635c-1.455,0.679-3.285,1.904-3.486,3.643
		c-0.006,0.059,0.055,0.119,0.113,0.079c1.352-0.955,2.58-1.849,4.085-2.588c1.661-0.817,3.554-1.057,5.161-1.917
		C43.164,189.954,42.854,189.376,42.444,189.345z"/>
	<path style="fill:#FFFFFF;" d="M36.582,188.791c-1.994-0.491-5.208,0.827-6.099,2.71c-0.01,0.02,0.009,0.047,0.032,0.039
		c1.056-0.388,2.065-0.835,3.141-1.178c0.997-0.317,2.157-0.335,3.04-0.922C36.96,189.265,36.888,188.866,36.582,188.791z"/>
	<path style="fill:#FFFFFF;" d="M70.83,190.708c-1.103-0.591-2.273-0.842-3.47-1.204c-1.721-0.52-3.316-1.418-4.879-2.287
		c-2.725-1.515-6.129-3.345-8.287-5.642c-0.023-0.026-0.068,0.011-0.047,0.04c0.97,1.322,1.641,2.427,2.886,3.563
		c1.224,1.117,2.729,2.018,4.146,2.861c2.829,1.681,6.142,3.357,9.509,3.319C71.043,191.353,71.124,190.865,70.83,190.708z"/>
	<path style="fill:#FFFFFF;" d="M94.378,155.174c-0.056-0.295-0.543-0.264-0.581,0.026c-0.635,4.856-0.437,9.668-1.501,14.498
		c-1.089,4.944-3.308,9.179-5.421,13.708c-0.027,0.059,0.044,0.102,0.089,0.062c3.52-3.139,5.295-8.273,6.492-12.7
		C94.776,165.886,95.317,160.161,94.378,155.174z"/>
	<path style="fill:#FFFFFF;" d="M72.345,167.994c-0.309-4.399-0.034-8.674,0.383-13.052c0.006-0.061-0.069-0.092-0.103-0.037
		c-2.193,3.659-2.083,8.137-1.867,12.27c0.22,4.204,0.246,9.215,2.432,12.954c0.188,0.323,0.721,0.156,0.692-0.216
		C73.582,175.933,72.628,172.008,72.345,167.994z"/>
	<path style="fill:#FFFFFF;" d="M67.215,167.801c-0.481-4.86-1.276-9.594-2.583-14.3c-0.014-0.047-0.088-0.034-0.084,0.015
		c0.352,4.141,0.645,8.286,1.008,12.427c0.382,4.35,1.043,8.585,0.354,12.932c-0.038,0.238,0.295,0.475,0.462,0.239
		C68.673,175.869,67.58,171.487,67.215,167.801z"/>
	<path style="fill:#FFFFFF;" d="M103.058,233.68c-2.736-4.979-2.542-10.832-1.982-16.303c1.128-11.017,2.142-22.149,1.923-33.242
		c-0.002-0.098-0.141-0.086-0.148,0.007c-0.489,6.188-0.779,12.344-1.512,18.517c-0.635,5.351-1.279,10.724-1.774,16.089
		c-0.413,4.481-0.312,8.975,1.226,13.245c0.769,2.133,2.139,3.886,3.531,5.64c1.735,2.185,2.881,5.049,3.727,7.67
		c0.053,0.163,0.303,0.086,0.254-0.079C107.094,241.139,105.102,237.399,103.058,233.68z"/>
	<path style="fill:#FFFFFF;" d="M76.433,215.472c-0.043-0.151-0.299-0.112-0.274,0.048c0.651,4.349,1.282,8.7,1.915,13.052
		c0.641,4.396,0.894,8.867,1.721,13.232c0.024,0.132,0.251,0.123,0.264-0.012C80.869,233.126,78.825,223.759,76.433,215.472z"/>
	<path style="fill:#FFFFFF;" d="M107.223,248.785c-8.3-1.269-16.942,0.652-24.937,2.813c-0.05,0.013-0.032,0.083,0.015,0.084
		c3.983,0.12,8.009-0.952,11.931-1.568c4.308-0.676,8.659-0.212,12.953-0.865C107.429,249.21,107.507,248.828,107.223,248.785z"/>
	<path style="fill:#FFFFFF;" d="M39.311,210.508c-0.01-0.179-0.266-0.162-0.273,0.012c-0.304,6.666-2.129,13.147-3.377,19.669
		c-1.143,5.971-1.062,11.788-1.065,17.835c0,0.284,0.429,0.312,0.486,0.041c0.555-2.604,0.651-5.235,0.705-7.891
		c0.072-3.577,0.628-7.107,1.289-10.617C38.271,223.216,39.667,217.001,39.311,210.508z"/>
	<path style="fill:#FFFFFF;" d="M54.165,253.371c-2.675-1.129-5.605-1.269-8.467-1.537c-2.897-0.271-5.799-0.531-8.696-0.771
		c-0.114-0.009-0.155,0.182-0.048,0.222c2.675,0.983,5.668,1.391,8.487,1.742c2.847,0.355,5.716,0.865,8.581,1.001
		C54.368,254.044,54.479,253.503,54.165,253.371z"/>
	<path style="fill:#FFFFFF;" d="M62.917,216.03c0.012-0.099-0.129-0.132-0.152-0.033c-1.99,8.29-2.621,16.783-3.331,25.257
		c-0.733,8.744-1.462,17.475-2.38,26.201c-0.866,8.237-1.533,16.508-1.588,24.794c-0.028,4.386,0.146,8.754,0.49,13.125
		c0.355,4.512,1.423,8.858,2.159,13.308c0.013,0.073,0.128,0.07,0.117-0.005c-2.501-17.099-1.181-34.69,0.569-51.798
		C60.532,249.945,60.748,232.931,62.917,216.03z"/>
	<path style="fill:#FFFFFF;" d="M58.919,321.526c-0.125-0.255-0.58-0.115-0.533,0.167c0.182,1.116,0.137,2.344,0.456,3.424
		c0.104,0.35,0.583,0.295,0.672-0.03C59.825,323.946,59.421,322.557,58.919,321.526z"/>
	<path style="fill:#FFFFFF;" d="M33.115,258.465c-0.466,5.496-1.798,10.856-2.353,16.329c-0.031,0.313,0.418,0.428,0.489,0.105
		c1.173-5.36,2.024-10.917,2.319-16.397C33.585,258.243,33.138,258.205,33.115,258.465z"/>
	<path style="fill:#FFFFFF;" d="M72.055,228.958c-0.259-4.915-0.32-10.003-1.151-14.859c-0.034-0.201-0.313-0.196-0.32,0.015
		c-0.152,4.615,0.211,9.281,0.281,13.9c0.07,4.527-0.31,9.633,0.824,14.038c0.092,0.355,0.674,0.341,0.725-0.032
		C72.987,237.805,72.277,233.197,72.055,228.958z"/>
	<path style="fill:#FFFFFF;" d="M71.011,248.459c-0.828-0.05-1.682-0.064-2.511-0.027c-0.247,0.011-0.263,0.355-0.035,0.417
		c0.849,0.231,1.777,0.372,2.64,0.152C71.433,248.918,71.304,248.477,71.011,248.459z"/>
	<path style="opacity:0.5;fill:#FFFFFF;" d="M49.854,376.567c-1.115-10.127-2.835-20.157-3.771-30.311
		c-0.019-0.205-0.323-0.193-0.32,0.015c0.187,10.145,1.758,20.261,2.661,30.359c0.926,10.36,0.77,20.768,2.869,31.001
		c0.09,0.445,0.826,0.311,0.777-0.136C50.962,397.204,50.985,386.845,49.854,376.567z"/>
	<path style="opacity:0.5;fill:#FFFFFF;" d="M96.413,374.64c-3.334-9.773-7.009-19.207-8.855-29.418
		c-0.028-0.159-0.287-0.109-0.274,0.048c0.832,9.893,4.321,19.584,7.503,28.927c1.654,4.86,3.228,9.752,4.634,14.691
		c1.478,5.184,2.228,10.542,3.683,15.726c0.103,0.363,0.703,0.268,0.657-0.115C102.533,394.446,99.677,384.208,96.413,374.64z"/>
	<path style="fill:#FFFFFF;" d="M98.521,424.874c-2.16,2.479-5.432,3.729-7.471,6.335c-1.821,2.327-0.613,4.949,1.906,6.064
		c0.481,0.212,0.951-0.404,0.538-0.776c-1.223-1.104-2.662-2.11-1.883-3.931c0.495-1.157,1.582-2.099,2.464-2.961
		c1.558-1.522,3.63-2.608,4.782-4.496C98.981,424.906,98.673,424.7,98.521,424.874z"/>
	<path style="fill:#FFFFFF;" d="M46.124,417.169c-3.191,1.668-6,3.957-9.235,5.584c-2.803,1.41-5.893,1.845-8.966,2.286
		c-4.404,0.633-11.114,0.972-14.051,4.85c-0.118,0.156,0.053,0.406,0.232,0.279c4.873-3.423,10.771-3.468,16.471-4.306
		c5.91-0.869,11.88-3.757,16.064-8.075C46.975,417.441,46.513,416.966,46.124,417.169z"/>
	<path style="fill:#FFFFFF;" d="M90.062,305.656c-2.131-2.934-4.15-5.495-4.64-9.21c-0.429-3.249-0.627-6.587-0.882-9.856
		c-0.251-3.221-0.361-6.441,0.18-9.641c0.627-3.696,2.655-6.029,4.434-9.153c0.037-0.066-0.043-0.12-0.1-0.092
		c-6.176,3.032-6.315,12.453-5.889,18.231c0.276,3.752,0.65,7.593,1.162,11.319c0.482,3.508,2.654,6.509,5.188,8.858
		C89.808,306.383,90.304,305.989,90.062,305.656z"/>
	<path style="fill:#FFFFFF;" d="M103.42,290.839c-0.091-3.031-0.26-6.049-0.703-9.052c-0.675-4.575-2.438-11.123-7.614-12.41
		c-0.064-0.016-0.085,0.07-0.037,0.103c4.434,2.964,5.767,7.938,6.479,12.963c0.325,2.291,0.447,4.612,0.557,6.921
		c0.046,0.975,0.076,1.952,0.121,2.927c0.088,1.888-0.039,2.898-1.29,4.425c-0.317,0.388,0.121,0.918,0.561,0.672
		C104.002,295.981,103.495,293.317,103.42,290.839z"/>
</g>
</svg>
